<svg xmlns="http://www.w3.org/2000/svg" xmlns:xlink="http://www.w3.org/1999/xlink" xmlns:lucid="lucid" width="3456.42" height="2168"><g transform="translate(-780 -500)" lucid:page-tab-id="0_0"><path d="M1850.6 520h1267.25v100.56H1850.6z" fill="none"/><use xlink:href="#a" transform="matrix(1,0,0,1,1850.595907270639,520) translate(99.92592592592666 66.05555555555553)"/><use xlink:href="#b" transform="matrix(1,0,0,1,1850.595907270639,520) translate(391.5925925925929 66.05555555555553)"/><use xlink:href="#c" transform="matrix(1,0,0,1,1850.595907270639,520) translate(745.6975308641973 66.05555555555553)"/><use xlink:href="#d" transform="matrix(1,0,0,1,1850.595907270639,520) translate(875.1111111111107 66.05555555555553)"/><path d="M2514.08 974.07a8 8 0 0 1 8-8h162a8 8 0 0 1 8 8v47.86a8 8 0 0 1-8 8h-162a8 8 0 0 1-8-8z" stroke="#3a414a" stroke-width="4" fill="#fff"/><use xlink:href="#e" transform="matrix(1,0,0,1,2519.0829325757713,971.066666666616) translate(4.322222222222251 31.455555555555552)"/><use xlink:href="#f" transform="matrix(1,0,0,1,2519.0829325757713,971.066666666616) translate(85.24691358024693 31.455555555555552)"/><path d="M2603.08 962.12V912" stroke="#3a414a" stroke-width="4" fill="none"/><path d="M2605.08 964.1l-4 .02v-2.06h4zM2603.05 910l2.03-.03v2.08h-4v-2.14z" stroke="#3a414a" stroke-width=".05" fill="#3a414a"/><path d="M2658.08 878c0 16.57-24.62 30-55 30-30.37 0-55-13.43-55-30s24.63-30 55-30c30.38 0 55 13.43 55 30z" stroke="#3a414a" stroke-width="4" fill="#fff"/><use xlink:href="#g" transform="matrix(1,0,0,1,2553.0828524249773,852.9999999999493) translate(34.025 30.025)"/><path d="M2603.08 962.12V950a12 12 0 0 1 12-12h73" stroke="#3a414a" stroke-width="4" fill="none"/><path d="M2605.08 964.1l-4 .02v-2.06h4zM2690.16 936.3l-.08 1.67v.54l.1 1.5h-2.15v-4h2.17z" stroke="#3a414a" stroke-width=".05" fill="#3a414a"/><path d="M2802.08 938c0 16.57-24.62 30-55 30-30.37 0-55-13.43-55-30s24.63-30 55-30c30.38 0 55 13.43 55 30z" stroke="#3a414a" stroke-width="4" fill="#fff"/><use xlink:href="#h" transform="matrix(1,0,0,1,2697.082772274184,912.9999999999493) translate(18.025 30.025)"/><path d="M2603.08 962.12V950a12 12 0 0 0-12-12h-55.75" stroke="#3a414a" stroke-width="4" fill="none"/><path d="M2605.08 964.1l-4 .02v-2.06h4zM2535.38 940h-2.2l.04-.26.1-.87v-1.48l-.07-.86-.07-.52h2.2z" stroke="#3a414a" stroke-width=".05" fill="#3a414a"/><path d="M2531.33 938c0 16.57-35.2 30-78.62 30s-78.62-13.43-78.62-30 35.2-30 78.63-30c43.43 0 78.63 13.43 78.63 30z" stroke="#3a414a" stroke-width="4" fill="#fff"/><use xlink:href="#i" transform="matrix(1,0,0,1,2379.0829325757713,912.9999999999493) translate(13.554999999999994 30.025)"/><path d="M2510.13 998h-72.05" stroke="#3a414a" stroke-width="4" fill="none"/><path d="M2512.13 1000h-2.05v-4h2.05zM2438.13 1000h-2.2l.08-.6.06-.7.02-.7v-.67l-.07-.7-.08-.63h2.2z" stroke="#3a414a" stroke-width=".05" fill="#3a414a"/><path d="M2434.08 998c0 16.57-39.84 30-89 30-49.15 0-89-13.43-89-30s39.85-30 89-30c49.16 0 89 13.43 89 30z" stroke="#3a414a" stroke-width="4" fill="#fff"/><use xlink:href="#j" transform="matrix(1,0,0,1,2261.0830928773594,972.9999999999493) translate(9.53000000000001 30.025)"/><path d="M3354.08 1102.12a8 8 0 0 1 8-8h144a8 8 0 0 1 8 8v44a8 8 0 0 1-8 8h-144a8 8 0 0 1-8-8z" stroke="#3a414a" stroke-width="4" fill="#fff"/><use xlink:href="#k" transform="matrix(1,0,0,1,3359.0829325757713,1099.1166414782194) translate(19.5746913580247 30.455555555555552)"/><path d="M3434.08 1090.17v-32.05" stroke="#3a414a" stroke-width="4" fill="none"/><path d="M3436.08 1092.16h-4v-2.05h4zM3434.05 1056.12l2.03-.03v2.07h-4v-2.14z" stroke="#3a414a" stroke-width=".05" fill="#3a414a"/><path d="M3489.08 1024.12c0 16.57-24.62 30-55 30-30.37 0-55-13.43-55-30s24.63-30 55-30c30.38 0 55 13.43 55 30z" stroke="#3a414a" stroke-width="4" fill="#fff"/><use xlink:href="#l" transform="matrix(1,0,0,1,3384.0829325757713,999.1166414782194) translate(38.025 30.025)"/><path d="M3434.08 1090.17v-14.05a12 12 0 0 1 12-12h46.75" stroke="#3a414a" stroke-width="4" fill="none"/><path d="M3436.08 1092.16h-4v-2.05h4zM3494.9 1062.42l-.07 1.66v.54l.12 1.5h-2.17v-4h2.17z" stroke="#3a414a" stroke-width=".05" fill="#3a414a"/><path d="M3606.83 1064.12c0 16.57-24.62 30-55 30-30.37 0-55-13.43-55-30s24.63-30 55-30c30.38 0 55 13.43 55 30z" stroke="#3a414a" stroke-width="4" fill="#fff"/><use xlink:href="#h" transform="matrix(1,0,0,1,3501.8329325757713,1039.1166414782194) translate(18.025 30.025)"/><path d="M3434.08 1090.17v-14.05a12 12 0 0 0-12-12h-46.75" stroke="#3a414a" stroke-width="4" fill="none"/><path d="M3436.08 1092.16h-4v-2.05h4zM3375.38 1066.12h-2.16l.04-.3.07-1.67v-.54l-.1-1.48h2.15z" stroke="#3a414a" stroke-width=".05" fill="#3a414a"/><path d="M3371.33 1064.12c0 16.57-24.62 30-55 30-30.37 0-55-13.43-55-30s24.63-30 55-30c30.38 0 55 13.43 55 30z" stroke="#3a414a" stroke-width="4" fill="#fff"/><use xlink:href="#m" transform="matrix(1,0,0,1,3266.3329325757713,1039.1166414782194) translate(27.525 30.025)"/><path d="M3350.13 1124.12h-69.05" stroke="#3a414a" stroke-width="4" fill="none"/><path d="M3352.14 1126.12h-2.06v-4h2.05zM3281.13 1126.12h-2.2l.08-.62.06-.7.02-.68v-.67l-.07-.7-.08-.63h2.2z" stroke="#3a414a" stroke-width=".05" fill="#3a414a"/><path d="M3277.08 1124.12c0 16.57-39.84 30-89 30-49.15 0-89-13.43-89-30s39.85-30 89-30c49.16 0 89 13.43 89 30z" stroke="#3a414a" stroke-width="4" fill="#fff"/><use xlink:href="#n" transform="matrix(1,0,0,1,3104.082932575772,1099.1166414782194) translate(25.60499999999999 30.025)"/><path d="M3434.08 1158.07v283.9" stroke="#3a414a" stroke-width="4" fill="none"/><path d="M3436.08 1158.12h-4v-2.05h4zM3436.08 1444.24l-.5-.14-1.5-.13-1.5.13-.5.14v-2.33h4z" stroke="#3a414a" stroke-width=".05" fill="#3a414a"/><path d="M3359.08 1535.88a3.84 3.84 0 0 0 3 6.25h144a3.84 3.84 0 0 0 3-6.25l-70-87.5a6.4 6.4 0 0 0-10 0z" stroke="#3a414a" stroke-width="4" fill="#fff"/><use xlink:href="#o" transform="matrix(1,0,0,1,3359.0829325757713,1447.128527985026) translate(55.134629629629636 50.670833333333334)"/><path d="M3434.08 1546.08v54.05a12 12 0 0 1-12 12h-82.04" stroke="#3a414a" stroke-width="4" fill="none"/><path d="M3436.08 1544.08v2.05h-4v-2.05zM3340.1 1614.13h-2.06v-4h2.05z" stroke="#3a414a" stroke-width=".05" fill="#3a414a"/><path d="M3434.08 1546.08v54.05a12 12 0 0 0 12 12h388.38" stroke="#3a414a" stroke-width="4" fill="none"/><path d="M3436.08 1544.08v2.05h-4v-2.05zM3836.47 1614.13h-2.06v-4h2.06z" stroke="#3a414a" stroke-width=".05" fill="#3a414a"/><path d="M3176.08 1590.13a8 8 0 0 1 8-8h144a8 8 0 0 1 8 8v44a8 8 0 0 1-8 8h-144a8 8 0 0 1-8-8z" stroke="#3a414a" stroke-width="4" fill="#fff"/><use xlink:href="#p" transform="matrix(1,0,0,1,3181.0830928773594,1587.1285279850263) translate(25.185802469135815 30.455555555555552)"/><path d="M3838.42 1590.13a8 8 0 0 1 8-8h164a8 8 0 0 1 8 8v44a8 8 0 0 1-8 8h-164a8 8 0 0 1-8-8z" stroke="#3a414a" stroke-width="4" fill="#fff"/><use xlink:href="#q" transform="matrix(1,0,0,1,3843.4161857583113,1587.1285279850263) translate(17.760185185185193 30.455555555555552)"/><path d="M3354.08 1670.13a8 8 0 0 1 8-8h144a8 8 0 0 1 8 8v44a8 8 0 0 1-8 8h-144a8 8 0 0 1-8-8z" stroke="#3a414a" stroke-width="4" fill="#fff"/><use xlink:href="#r" transform="matrix(1,0,0,1,3359.0829325757713,1667.128527985026) translate(21.445061728395075 30.455555555555552)"/><path d="M3434.08 1546.08v112.1" stroke="#3a414a" stroke-width="4" fill="none"/><path d="M3436.08 1544.08v2.05h-4v-2.05zM3436.08 1660.18h-4v-2.05h4z" stroke="#3a414a" stroke-width=".05" fill="#3a414a"/><path d="M3754.08 1126.05c0 16.57-39.84 30-89 30-49.15 0-89-13.43-89-30s39.85-30 89-30c49.16 0 89 13.43 89 30z" stroke="#3a414a" stroke-width="4" fill="#fff"/><use xlink:href="#i" transform="matrix(1,0,0,1,3581.0830928773594,1101.0499748115528) translate(23.554999999999993 30.025)"/><path d="M3518.04 1124.12h54.2" stroke="#3a414a" stroke-width="4" fill="none"/><path d="M3518.1 1126.12h-2.06v-4h2.05zM3574.58 1122.55l-.18.72-.14.7-.1.7-.06.7-.02.68v.07h-1.9v-4h2.54z" stroke="#3a414a" stroke-width=".05" fill="#3a414a"/><path d="M3756.08 1212.13c0 16.57-44.77 30-100 30s-100-13.43-100-30 44.77-30 100-30 100 13.43 100 30z" stroke="#3a414a" stroke-width="4" fill="#fff"/><use xlink:href="#s" transform="matrix(1,0,0,1,3561.083092877359,1187.128527985026) translate(24.604999999999997 30.025)"/><path d="M3518.04 1124.12h5.02a12 12 0 0 1 12 12v64a12 12 0 0 0 12 12h5.02" stroke="#3a414a" stroke-width="4" fill="none"/><path d="M3518.1 1126.12h-2.06v-4h2.05zM3554.2 1210.45l-.06.56-.04.57-.02.54v.28l.03.54.06.56.1.56v.1h-2.23v-4h2.24z" stroke="#3a414a" stroke-width=".05" fill="#3a414a"/><path d="M3299.08 1212.13c0 16.57-23.05 30-51.5 30-28.44 0-51.5-13.43-51.5-30s23.06-30 51.5-30c28.45 0 51.5 13.43 51.5 30z" stroke="#3a414a" stroke-width="4" fill="#fff"/><use xlink:href="#t" transform="matrix(1,0,0,1,3201.08309287736,1187.128527985026) translate(31.55 30.025)"/><path d="M3350.13 1124.12h-11.52a12 12 0 0 0-12 12v64a12 12 0 0 1-12 12h-11.52" stroke="#3a414a" stroke-width="4" fill="none"/><path d="M3352.14 1126.12h-2.06v-4h2.05zM3303.13 1214.13h-2.15v-.08l.1-1.88v-.43l-.1-1.6h2.15z" stroke="#3a414a" stroke-width=".05" fill="#3a414a"/><path d="M2978.92 1207.23a9.67 9.67 0 0 1 12.33 0l67.67 56a6.62 6.62 0 0 1 0 10.2l-67.67 56a9.67 9.67 0 0 1-12.33 0l-67.67-56a6.62 6.62 0 0 1 0-10.2z" stroke="#3a414a" stroke-width="4" fill="#fff"/><use xlink:href="#u" transform="matrix(1,0,0,1,2910.0830127265654,1207.128527985026) translate(29.773209876543213 64.08055555555555)"/><use xlink:href="#v" transform="matrix(1,0,0,1,2910.0830127265654,1207.128527985026) translate(99.03925925925925 64.08055555555555)"/><path d="M3434.08 1160.07v96.27a12 12 0 0 1-12 12h-327.54" stroke="#3a414a" stroke-width="8" fill="none"/><path d="M3438.08 1160.17h-8v-4.1h8z" stroke="#3a414a" stroke-width=".05" fill="#3a414a"/><path d="M3076.27 1268.34l14.27-4.64v9.27z" stroke="#3a414a" stroke-width="8" fill="#3a414a"/><path d="M2904.84 1268.34h-289.76a12 12 0 0 1-12-12v-222.46" stroke="#3a414a" stroke-width="4" fill="none"/><path d="M2906.97 1266.83l-.13 1.5.13 1.52.13.5h-2.3v-4h2.3zM2605.08 1033.94h-4v-2.05l4-.02z" stroke="#3a414a" stroke-width=".05" fill="#3a414a"/><path d="M2696.03 998h85.05" stroke="#3a414a" stroke-width="4" fill="none"/><path d="M2696.1 1000h-2.06v-4h2.05zM2783.26 996.1l-.08.5-.05.46-.04.47-.02.46v.27l.03.46.05.47.07.48.06.32h-2.25v-4h2.25z" stroke="#3a414a" stroke-width=".05" fill="#3a414a"/><path d="M3005.08 998c0 16.57-49.25 30-110 30s-110-13.43-110-30 49.25-30 110-30 110 13.43 110 30z" stroke="#3a414a" stroke-width="4" fill="#fff"/><use xlink:href="#w" transform="matrix(1,0,0,1,2790.0830127265654,972.9999999999493) translate(16.630000000000003 30.025)"/><path d="M3172.13 1612.13h-34.05" stroke="#3a414a" stroke-width="4" fill="none"/><path d="M3174.14 1614.13h-2.06v-4h2.05zM3138.13 1614.13h-2.18l.1-.74.03-1.24v-.4l-.07-1.22-.05-.4h2.18z" stroke="#3a414a" stroke-width=".05" fill="#3a414a"/><path d="M3134.08 1612.13c0 16.57-28.87 30-64.5 30-35.62 0-64.5-13.43-64.5-30s28.88-30 64.5-30c35.63 0 64.5 13.43 64.5 30z" stroke="#3a414a" stroke-width="4" fill="#fff"/><use xlink:href="#x" transform="matrix(1,0,0,1,3010.0830127265654,1587.1285279850263) translate(35.55 30.025)"/><path d="M4216.42 1612.13c0 16.57-28.88 30-64.5 30-35.63 0-64.5-13.43-64.5-30s28.87-30 64.5-30c35.62 0 64.5 13.43 64.5 30z" stroke="#3a414a" stroke-width="4" fill="#fff"/><use xlink:href="#x" transform="matrix(1,0,0,1,4092.416105607518,1587.1285279850263) translate(35.55 30.025)"/><path d="M4022.37 1612.13h61.05" stroke="#3a414a" stroke-width="4" fill="none"/><path d="M4022.42 1614.13h-2.05v-4h2.05zM4085.46 1610.87l-.04 1.23v.4l.07 1.22.05.4h-2.2v-4h2.2z" stroke="#3a414a" stroke-width=".05" fill="#3a414a"/><path d="M3498.58 1792.13c0 16.57-28.87 30-64.5 30-35.62 0-64.5-13.43-64.5-30s28.88-30 64.5-30c35.63 0 64.5 13.43 64.5 30z" stroke="#3a414a" stroke-width="4" fill="#fff"/><use xlink:href="#y" transform="matrix(1,0,0,1,3374.5829726511683,1767.128527985026) translate(38.025 30.025)"/><path d="M3434.08 1726.08v32.05" stroke="#3a414a" stroke-width="4" fill="none"/><path d="M3436.08 1726.13h-4v-2.05h4zM3436.08 1760.2l-1.97-.07-2.02.02v-2.07h4z" stroke="#3a414a" stroke-width=".05" fill="#3a414a"/><path d="M1599.75 1839.12a8 8 0 0 1 8-8h162a8 8 0 0 1 8 8V1887a8 8 0 0 1-8 8h-162a8 8 0 0 1-8-8z" stroke="#3a414a" stroke-width="4" fill="#fff"/><use xlink:href="#z" transform="matrix(1,0,0,1,1604.749679393232,1836.1204069026705) translate(41.04382716049384 31.455555555555552)"/><path d="M1688.75 1827.17v-50.12" stroke="#3a414a" stroke-width="4" fill="none"/><path d="M1690.75 1829.17h-4v-2.05h4zM1688.72 1775.05l2.03-.02v2.08h-4v-2.13z" stroke="#3a414a" stroke-width=".05" fill="#3a414a"/><path d="M1743.75 1743.05c0 16.57-24.62 30-55 30s-55-13.43-55-30c0-16.56 24.62-30 55-30s55 13.44 55 30z" stroke="#3a414a" stroke-width="4" fill="#fff"/><use xlink:href="#A" transform="matrix(1,0,0,1,1638.7495992424383,1718.0537402360042) translate(38.525 30.025)"/><path d="M1688.75 1827.17v-12.12a12 12 0 0 1 12-12h73" stroke="#3a414a" stroke-width="4" fill="none"/><path d="M1690.75 1829.17h-4v-2.05h4zM1775.82 1801.36l-.07 1.66v.54l.1 1.5h-2.15v-4h2.17z" stroke="#3a414a" stroke-width=".05" fill="#3a414a"/><path d="M1887.75 1803.05c0 16.57-24.62 30-55 30s-55-13.43-55-30c0-16.56 24.62-30 55-30s55 13.44 55 30z" stroke="#3a414a" stroke-width="4" fill="#fff"/><use xlink:href="#B" transform="matrix(1,0,0,1,1782.7495190916443,1778.0537402360042) translate(17.549999999999997 30.025)"/><path d="M1688.75 1827.17v-12.12a12 12 0 0 0-12-12H1592" stroke="#3a414a" stroke-width="4" fill="none"/><path d="M1690.75 1829.17h-4v-2.05h4zM1592.05 1805.05h-2.16l.02-.18.08-1.8-.04-1.28-.08-.75h2.17z" stroke="#3a414a" stroke-width=".05" fill="#3a414a"/><path d="M1588 1803.05c0 16.57-23.8 30-53.13 30-29.34 0-53.12-13.43-53.12-30 0-16.56 23.78-30 53.12-30 29.34 0 53.13 13.44 53.13 30z" stroke="#3a414a" stroke-width="4" fill="#fff"/><use xlink:href="#m" transform="matrix(1,0,0,1,1486.74983969482,1778.0537402360042) translate(26.025 30.025)"/><path d="M1781.7 1863.05h301.38a12 12 0 0 0 12-12v-149.5" stroke="#3a414a" stroke-width="4" fill="none"/><path d="M1781.75 1865.05h-2.04v-4h2.05zM2093.47 1699.43l1.6.1 1.62-.1.38-.08v2.24h-4v-2.25z" stroke="#3a414a" stroke-width=".05" fill="#3a414a"/><path d="M2088.92 1573.1a9.67 9.67 0 0 1 12.33 0l67.67 56a6.62 6.62 0 0 1 0 10.2l-67.67 56.02a9.67 9.67 0 0 1-12.33 0l-67.67-56a6.62 6.62 0 0 1 0-10.2z" stroke="#3a414a" stroke-width="4" fill="#fff"/><use xlink:href="#C" transform="matrix(1,0,0,1,2020.0830127265654,1572.9999999999493) translate(49.50561728395062 64.08055555555555)"/><path d="M2095.08 1566.88V1430a12 12 0 0 1 12-12h484a12 12 0 0 0 12-12v-372.12" stroke="#3a414a" stroke-width="4" fill="none"/><path d="M2097.08 1569.07l-.4-.08-1.6-.12-1.6.1-.4.1v-2.25h4zM2605.08 1033.94h-4v-2.05l4-.02z" stroke="#3a414a" stroke-width=".05" fill="#3a414a"/><path d="M1595.8 1863.05H1505.75" stroke="#3a414a" stroke-width="4" fill="none"/><path d="M1597.8 1865.05h-2.05v-4h2.04zM1505.8 1865.05h-2.18l.08-.7.05-1.3-.04-1.17-.08-.83h2.18z" stroke="#3a414a" stroke-width=".05" fill="#3a414a"/><path d="M1501.75 1863.05c0 16.57-28.36 30-63.33 30-34.98 0-63.34-13.43-63.34-30 0-16.56 28.36-30 63.34-30 34.97 0 63.33 13.44 63.33 30z" stroke="#3a414a" stroke-width="4" fill="#fff"/><use xlink:href="#D" transform="matrix(1,0,0,1,1380.0830127265656,1838.0537402360042) translate(7.549999999999997 30.025)"/><path d="M1981.75 1634.2c0 16.58-28.36 30-63.33 30-34.98 0-63.34-13.42-63.34-30 0-16.56 28.36-30 63.34-30 34.97 0 63.33 13.44 63.33 30z" stroke="#3a414a" stroke-width="4" fill="#fff"/><use xlink:href="#E" transform="matrix(1,0,0,1,1860.0830127265656,1609.2083083419325) translate(28.025 30.025)"/><path d="M1985.75 1634.2h29.1" stroke="#3a414a" stroke-width="4" fill="none"/><path d="M1985.8 1636.2h-2.18l.08-.7.05-1.3-.04-1.16-.08-.83h2.18zM2016.97 1632.7l-.13 1.5.13 1.52.13.5h-2.3v-4h2.3z" stroke="#3a414a" stroke-width=".05" fill="#3a414a"/><path d="M1595.8 1863.05h-49.55a12 12 0 0 0-12 12V1946a12 12 0 0 1-12 12h-49.54" stroke="#3a414a" stroke-width="4" fill="none"/><path d="M1597.8 1865.05h-2.05v-4h2.04zM1472.76 1960h-2.2l.1-.82.05-1.18-.03-1.17-.1-.83h2.2z" stroke="#3a414a" stroke-width=".05" fill="#3a414a"/><path d="M1468.7 1958c0 16.57-29.9 30-66.8 30s-66.82-13.43-66.82-30 29.92-30 66.82-30c36.9 0 66.8 13.43 66.8 30z" stroke="#3a414a" stroke-width="4" fill="#fff"/><use xlink:href="#F" transform="matrix(1,0,0,1,1340.0830127265654,1932.9999999999493) translate(13.12999999999999 30.025)"/><use xlink:href="#G" transform="matrix(1,0,0,1,1340.0830127265654,1932.9999999999493) translate(43.07999999999999 30.025)"/><path d="M1168.42 719.2a8 8 0 0 1 8-8h162a8 8 0 0 1 8 8v47.86a8 8 0 0 1-8 8h-162a8 8 0 0 1-8-8z" stroke="#3a414a" stroke-width="4" fill="#fff"/><use xlink:href="#H" transform="matrix(1,0,0,1,1173.4161857583108,716.1926694754553) translate(29.852777777777796 31.455555555555552)"/><path d="M1320.75 628.75c0 16.57-28.36 30-63.33 30-34.98 0-63.34-13.43-63.34-30s28.36-30 63.34-30c34.97 0 63.33 13.43 63.33 30z" stroke="#3a414a" stroke-width="4" fill="#fff"/><use xlink:href="#I" transform="matrix(1,0,0,1,1199.0826921233897,603.7522135009166) translate(46.525 30.025)"/><path d="M1257.42 662.75v44.5" stroke="#3a414a" stroke-width="4" fill="none"/><path d="M1257.4 660.75l2.02-.07v2.12h-4v-2.12zM1259.42 709.24h-4v-2.05h4z" stroke="#3a414a" stroke-width=".05" fill="#3a414a"/><path d="M1257.42 707.24v-22.5a12 12 0 0 1 12-12h83.7" stroke="#3a414a" stroke-width="4" fill="none"/><path d="M1259.42 709.24h-4v-2.05h4zM1355.17 671.45l-.05 1.3.04 1.17.1.83h-2.2v-4h2.2z" stroke="#3a414a" stroke-width=".05" fill="#3a414a"/><path d="M1483.8 672.75c0 16.57-28.36 30-63.34 30-34.98 0-63.34-13.43-63.34-30s28.36-30 63.34-30c34.98 0 63.33 13.43 63.33 30z" stroke="#3a414a" stroke-width="4" fill="#fff"/><use xlink:href="#J" transform="matrix(1,0,0,1,1362.1240381868809,647.7522135008659) translate(16.549999999999997 30.025)"/><path d="M1257.42 707.24v-22.5a12 12 0 0 0-12-12h-86.34" stroke="#3a414a" stroke-width="4" fill="none"/><path d="M1259.42 709.24h-4v-2.05h4zM1159.14 674.75h-2.2l.1-.7.04-1.3-.04-1.17-.1-.83h2.2z" stroke="#3a414a" stroke-width=".05" fill="#3a414a"/><path d="M1155.08 672.75c0 16.57-28.35 30-63.33 30s-63.33-13.43-63.33-30 28.35-30 63.33-30 63.33 13.43 63.33 30z" stroke="#3a414a" stroke-width="4" fill="#fff"/><use xlink:href="#K" transform="matrix(1,0,0,1,1033.416185758311,647.7522135008659) translate(16.075000000000003 30.025)"/><path d="M1173.33 1173.16a8 8 0 0 1 8-8h162a8 8 0 0 1 8 8v47.86a8 8 0 0 1-8 8h-162a8 8 0 0 1-8-8z" stroke="#3a414a" stroke-width="4" fill="#fff"/><use xlink:href="#L" transform="matrix(1,0,0,1,1178.3331730317454,1170.1567160258367) translate(42.29074074074075 31.455555555555552)"/><path d="M1325.37 1070.36c0 16.57-28.35 30-63.33 30s-63.33-13.43-63.33-30 28.36-30 63.34-30c34.98 0 63.33 13.43 63.33 30z" stroke="#3a414a" stroke-width="4" fill="#fff"/><use xlink:href="#M" transform="matrix(1,0,0,1,1203.707611976188,1045.3629005455762) translate(46.525 30.025)"/><path d="M1262.04 1104.36v28.28a.15.15 0 0 0 .15.14.15.15 0 0 1 .13.15v28.28" stroke="#3a414a" stroke-width="4" fill="none"/><path d="M1262.04 1102.36l2-.07v2.12h-4v-2.13zM1264.33 1163.2h-4v-2.05h4z" stroke="#3a414a" stroke-width=".05" fill="#3a414a"/><path d="M1262.33 1161.2v-26.08a12 12 0 0 1 12-12h63.7" stroke="#3a414a" stroke-width="4" fill="none"/><path d="M1264.33 1163.2h-4v-2.05h4zM1340.16 1121.25l-.1.94-.02.9.02.74.08.93.05.35h-2.2v-4h2.2z" stroke="#3a414a" stroke-width=".05" fill="#3a414a"/><path d="M1493.33 1123.12c0 16.57-33.86 30-75.64 30-41.8 0-75.66-13.43-75.66-30s33.87-30 75.65-30c41.77 0 75.63 13.43 75.63 30z" stroke="#3a414a" stroke-width="4" fill="#fff"/><use xlink:href="#N" transform="matrix(1,0,0,1,1347.0410254603153,1098.1211589048082) translate(6.130000000000004 30.025)"/><path d="M1262.33 1161.2v-26.08a12 12 0 0 0-12-12h-64.3" stroke="#3a414a" stroke-width="4" fill="none"/><path d="M1264.33 1163.2h-4v-2.05h4zM1186.1 1125.12h-2.2v-.02l.1-1 .04-.95v-.1l-.03-.96-.1-.98h2.2z" stroke="#3a414a" stroke-width=".05" fill="#3a414a"/><path d="M1182.04 1123.12c0 16.57-32.83 30-73.33 30s-73.33-13.43-73.33-30 32.84-30 73.34-30 73.34 13.43 73.34 30z" stroke="#3a414a" stroke-width="4" fill="#fff"/><use xlink:href="#O" transform="matrix(1,0,0,1,1040.3741984920607,1098.1211589048082) translate(15.579999999999993 30.025)"/><path d="M1588.92 890.95a9.67 9.67 0 0 1 12.33 0l67.67 56a6.62 6.62 0 0 1 0 10.2l-67.67 56a9.67 9.67 0 0 1-12.33 0l-67.67-56a6.62 6.62 0 0 1 0-10.2z" stroke="#3a414a" stroke-width="4" fill="#fff"/><use xlink:href="#P" transform="matrix(1,0,0,1,1520.0830127265654,890.8452446343931) translate(55.08555555555556 64.08055555555555)"/><path d="M1350.37 743.13h232.7a12 12 0 0 1 12 12v129.6" stroke="#3a414a" stroke-width="4" fill="none"/><path d="M1350.42 745.13h-2.05v-4h2.05zM1597.08 886.92l-.4-.1-1.6-.1-1.6.1-.4.1v-2.25h4z" stroke="#3a414a" stroke-width=".05" fill="#3a414a"/><path d="M1595.08 1019.4v165.7a12 12 0 0 1-12 12h-227.8" stroke="#3a414a" stroke-width="4" fill="none"/><path d="M1593.47 1017.27l1.6.12 1.62-.13.38-.08v2.24h-4v-2.25zM1355.34 1199.1h-2.05l-.02-4h2.06z" stroke="#3a414a" stroke-width=".05" fill="#3a414a"/><path d="M1120 1199.02c0 16.57-32.83 30-73.33 30s-73.34-13.43-73.34-30 32.84-30 73.34-30 73.33 13.43 73.33 30z" stroke="#3a414a" stroke-width="4" fill="#fff"/><use xlink:href="#Q" transform="matrix(1,0,0,1,978.3331730317454,1174.0233826925037) translate(51.029999999999994 30.025)"/><path d="M1123.87 1197.1H1169.38" stroke="#3a414a" stroke-width="4" fill="none"/><path d="M1123.92 1199.1H1122v-.14l-.04-.96-.1-1-.17-1-.24-.9h2.46zM1171.4 1199.1h-2.07v-4h2.05z" stroke="#3a414a" stroke-width=".05" fill="#3a414a"/><path d="M1169.38 1197.1h-10.7a12 12 0 0 0-12 12v83.45a12 12 0 0 1-12 12H1124" stroke="#3a414a" stroke-width="4" fill="none"/><path d="M1171.4 1199.1h-2.07v-4h2.05zM1124.05 1306.55h-2.3v-.04l.08-.32.06-.33.04-.33.03-.32.02-.33v-.8l-.04-.34-.04-.32-.06-.32-.07-.33-.06-.2h2.3z" stroke="#3a414a" stroke-width=".05" fill="#3a414a"/><path d="M1120 1304.55c0 16.56-71.63 30-160 30s-160-13.44-160-30c0-16.57 71.63-30 160-30s160 13.43 160 30z" stroke="#3a414a" stroke-width="4" fill="#fff"/><use xlink:href="#R" transform="matrix(1,0,0,1,805,1279.5451446689924) translate(13.130000000000004 30.025)"/><path d="M1055.08 743.13c0 16.56-35.8 30-80 30-44.18 0-80-13.44-80-30 0-16.57 35.82-30 80-30 44.2 0 80 13.43 80 30z" stroke="#3a414a" stroke-width="4" fill="#fff"/><use xlink:href="#S" transform="matrix(1,0,0,1,900.0830127265655,718.1260028087886) translate(12.029999999999996 30.025)"/><path d="M1059.08 743.13h105.38" stroke="#3a414a" stroke-width="4" fill="none"/><path d="M1059.13 745.13h-2.2l.05-.32.08-.83.02-.82V743l-.03-.83-.1-.84-.02-.2h2.2zM1166.47 745.13h-2.06v-4h2.06z" stroke="#3a414a" stroke-width=".05" fill="#3a414a"/><path d="M1968.4 926.12a12.08 12.08 0 0 1 13.35 0l86.66 57.37a5.3 5.3 0 0 1 0 8.82l-86.65 57.38a12.08 12.08 0 0 1-13.34 0l-86.65-57.38a5.3 5.3 0 0 1 0-8.83z" stroke="#3a414a" stroke-width="4" fill="#fff"/><use xlink:href="#T" transform="matrix(1,0,0,1,1880.0830127265654,926.7000247942531) translate(40.079691358024704 64.08055555555555)"/><use xlink:href="#U" transform="matrix(1,0,0,1,1880.0830127265654,926.7000247942531) translate(127.30129629629629 64.08055555555555)"/><path d="M1875.37 987.9h-49.3a12 12 0 0 1-12-12V755.14a12 12 0 0 0-12-12h-451.7" stroke="#3a414a" stroke-width="4" fill="none"/><path d="M1877.5 986.48l-.13 1.43.14 1.44.2.57h-2.38v-4h2.37zM1350.42 745.13h-2.05v-4h2.05z" stroke="#3a414a" stroke-width=".05" fill="#3a414a"/><path d="M2074.8 987.9h26a12 12 0 0 1 12 12v59.98a12 12 0 0 0 12 12h466.28a12 12 0 0 0 12-12v-26" stroke="#3a414a" stroke-width="4" fill="none"/><path d="M2074.85 989.9h-2.37l.17-.56.14-1.43-.15-1.42-.17-.57h2.37zM2605.08 1033.94h-4v-2.05l4-.02z" stroke="#3a414a" stroke-width=".05" fill="#3a414a"/><path d="M3921.75 1005.54a12.08 12.08 0 0 1 13.34 0l86.65 57.38a5.3 5.3 0 0 1 0 8.83l-86.66 57.37a12.08 12.08 0 0 1-13.35 0l-86.66-57.37a5.3 5.3 0 0 1 0-8.83z" stroke="#3a414a" stroke-width="4" fill="#fff"/><use xlink:href="#V" transform="matrix(1,0,0,1,3833.416185758311,1006.1244379389482) translate(46.875370370370376 64.08055555555555)"/><use xlink:href="#W" transform="matrix(1,0,0,1,3833.416185758311,1006.1244379389482) translate(117.94944444444445 64.08055555555555)"/><path d="M3928.42 1578.18v-443.04" stroke="#3a414a" stroke-width="4" fill="none"/><path d="M3930.42 1580.18h-4v-2.05h4zM3926.77 1133.04l1.65.1 1.64-.1.36-.06v2.2h-4v-2.2z" stroke="#3a414a" stroke-width=".05" fill="#3a414a"/><path d="M3928.42 999.53v-244.4a12 12 0 0 0-12-12H1350.37" stroke="#3a414a" stroke-width="4" fill="none"/><path d="M3930.42 1001.7l-.36-.07-1.64-.1-1.65.1-.35.06v-2.22h4zM1350.42 745.13h-2.05v-4h2.05z" stroke="#3a414a" stroke-width=".05" fill="#3a414a"/><path d="M3350.13 1692.13h-591.05a12 12 0 0 1-12-12v-136.88" stroke="#3a414a" stroke-width="4" fill="none"/><path d="M3352.14 1694.13h-2.06v-4h2.05zM2745.47 1541.14l1.6.1 1.62-.1.38-.08v2.24h-4v-2.24z" stroke="#3a414a" stroke-width=".05" fill="#3a414a"/><path d="M2747.08 1408.6V1010a12 12 0 0 0-12-12h-39.05" stroke="#3a414a" stroke-width="4" fill="none"/><path d="M2749.08 1410.78l-.4-.08-1.6-.1-1.6.1-.4.08v-2.24h4zM2696.1 1000h-2.06v-4h2.05z" stroke="#3a414a" stroke-width=".05" fill="#3a414a"/><path d="M2740.92 1414.8a9.67 9.67 0 0 1 12.33 0l67.67 56.02a6.62 6.62 0 0 1 0 10.2l-67.67 56a9.67 9.67 0 0 1-12.33 0l-67.67-56a6.62 6.62 0 0 1 0-10.2z" stroke="#3a414a" stroke-width="4" fill="#fff"/><use xlink:href="#X" transform="matrix(1,0,0,1,2672.082772274184,1414.7119113010597) translate(44.48679012345679 44.86180555555555)"/><use xlink:href="#Y" transform="matrix(1,0,0,1,2672.082772274184,1414.7119113010597) translate(21.450061728395074 71.79513888888889)"/><path d="M2514.08 1956a8 8 0 0 1 8-8h198.34a8 8 0 0 1 8 8v47.87a8 8 0 0 1-8 8h-198.34a8 8 0 0 1-8-8z" stroke="#3a414a" stroke-width="4" fill="#fff"/><use xlink:href="#e" transform="matrix(1,0,0,1,2519.082932575772,1952.9999999999493) translate(27.747530864197557 31.455555555555552)"/><use xlink:href="#Z" transform="matrix(1,0,0,1,2519.082932575772,1952.9999999999493) translate(108.67222222222223 31.455555555555552)"/><path d="M2510.13 1979.93h-274.8" stroke="#3a414a" stroke-width="4" fill="none"/><path d="M2512.13 1981.93h-2.05v-4h2.05zM2235.38 1981.93h-2.32l.13-.5.13-1.5-.14-1.5-.14-.5h2.32z" stroke="#3a414a" stroke-width=".05" fill="#3a414a"/><path d="M2074.84 1979.93h-374.1a12 12 0 0 1-12-12v-69" stroke="#3a414a" stroke-width="4" fill="none"/><path d="M2076.97 1978.42l-.13 1.5.13 1.52.13.5h-2.3v-4h2.3zM1690.75 1899h-4v-2.06h4z" stroke="#3a414a" stroke-width=".05" fill="#3a414a"/><path d="M2148.92 1918.83a9.67 9.67 0 0 1 12.33 0l67.67 56a6.62 6.62 0 0 1 0 10.2l-67.67 56a9.67 9.67 0 0 1-12.33 0l-67.67-56a6.62 6.62 0 0 1 0-10.2z" stroke="#3a414a" stroke-width="4" fill="#fff"/><use xlink:href="#aa" transform="matrix(1,0,0,1,2080.0830127265654,1918.7250249912995) translate(32.048827160493836 48.70555555555555)"/><use xlink:href="#ab" transform="matrix(1,0,0,1,2080.0830127265654,1918.7250249912995) translate(25.814259259259263 75.63888888888889)"/><path d="M3085.08 1779.93v-75.8a12 12 0 0 1 12-12h253.05" stroke="#3a414a" stroke-width="4" fill="none"/><path d="M3087.08 1782.1l-.37-.07-1.62-.1-1.63.1-.37.07v-2.22h4zM3352.14 1694.13h-2.06v-4h2.05z" stroke="#3a414a" stroke-width=".05" fill="#3a414a"/><path d="M2732.37 1979.93h340.7a12 12 0 0 0 12-12v-52.83" stroke="#3a414a" stroke-width="4" fill="none"/><path d="M2732.42 1981.93h-2.05v-4h2.05zM3083.45 1913l1.63.1 1.63-.1.38-.07v2.22h-4v-2.22z" stroke="#3a414a" stroke-width=".05" fill="#3a414a"/><path d="M3078.64 1786.05a10.87 10.87 0 0 1 12.9 0l77.1 56.73a5.9 5.9 0 0 1 0 9.48l-77.1 56.72a10.87 10.87 0 0 1-12.9 0l-77.1-56.72a5.9 5.9 0 0 1 0-9.48z" stroke="#3a414a" stroke-width="4" fill="#fff"/><use xlink:href="#ac" transform="matrix(1,0,0,1,3000.0830127265654,1786.3084083073331) translate(28.550987654320984 64.08055555555555)"/><use xlink:href="#ad" transform="matrix(1,0,0,1,3000.0830127265654,1786.3084083073331) translate(111.53308641975309 64.08055555555555)"/><path d="M2495.08 2231.06c0 16.57-35.8 30-80 30-44.18 0-80-13.43-80-30s35.82-30 80-30c44.2 0 80 13.43 80 30z" stroke="#3a414a" stroke-width="4" fill="#fff"/><use xlink:href="#ae" transform="matrix(1,0,0,1,2340.0830127265654,2206.057183814816) translate(7.5550000000000015 30.025)"/><path d="M2689.58 1878c0 16.57-30.6 30-68.33 30-37.74 0-68.33-13.43-68.33-30s30.6-30 68.33-30c37.74 0 68.33 13.43 68.33 30z" stroke="#3a414a" stroke-width="4" fill="#fff"/><use xlink:href="#af" transform="matrix(1,0,0,1,2557.9162659091053,1852.9999999999493) translate(11.554999999999994 30.025)"/><path d="M2548.75 2231.06h-49.67" stroke="#3a414a" stroke-width="4" fill="none"/><path d="M2550.37 2230.24l.64 1.37.9 1.25.2.2h-3.4v-4h1.35zM2499.14 2233.06h-2.2l.04-.32.08-.84.02-.82v-.16l-.03-.82-.1-.84-.02-.2h2.2z" stroke="#3a414a" stroke-width=".05" fill="#3a414a"/><path d="M2539.22 2487.86a8 8 0 0 1 8-8h162a8 8 0 0 1 8 8v47.86a8 8 0 0 1-8 8h-162a8 8 0 0 1-8-8z" stroke="#3a414a" stroke-width="4" fill="#fff"/><use xlink:href="#ag" transform="matrix(1,0,0,1,2544.220907270639,2484.8571755420508) translate(42.88302469135804 31.455555555555552)"/><path d="M2685.08 2618c0 16.57-24.62 30-55 30-30.37 0-55-13.43-55-30s24.63-30 55-30c30.38 0 55 13.43 55 30z" stroke="#3a414a" stroke-width="4" fill="#fff"/><use xlink:href="#ah" transform="matrix(1,0,0,1,2580.0830127265654,2592.999999999949) translate(41.05 30.025)"/><path d="M2539.22 2449.86c0 16.57-24.62 30-55 30-30.37 0-55-13.43-55-30s24.63-30 55-30c30.38 0 55 13.43 55 30z" stroke="#3a414a" stroke-width="4" fill="#fff"/><use xlink:href="#ai" transform="matrix(1,0,0,1,2434.220907270639,2424.8571755420508) translate(38.525 30.025)"/><path d="M2827.22 2449.86c0 16.57-24.62 30-55 30-30.37 0-55-13.43-55-30s24.63-30 55-30c30.38 0 55 13.43 55 30z" stroke="#3a414a" stroke-width="4" fill="#fff"/><use xlink:href="#aj" transform="matrix(1,0,0,1,2722.2207469690516,2424.8571755420508) translate(38.525 30.025)"/><path d="M2628.22 2475.9v-14.04a12 12 0 0 0-12-12h-73" stroke="#3a414a" stroke-width="4" fill="none"/><path d="M2630.22 2477.9h-4v-2.05h4zM2543.27 2451.86h-2.17l.05-.3.07-1.67v-.55l-.1-1.5h2.15z" stroke="#3a414a" stroke-width=".05" fill="#3a414a"/><path d="M2628.22 2475.9v-14.04a12 12 0 0 1 12-12h73" stroke="#3a414a" stroke-width="4" fill="none"/><path d="M2630.22 2477.9h-4v-2.05h4zM2715.3 2448.16l-.08 1.66v.54l.1 1.5h-2.15v-4h2.17z" stroke="#3a414a" stroke-width=".05" fill="#3a414a"/><path d="M2630.08 2547.67V2584" stroke="#3a414a" stroke-width="4" fill="none"/><path d="M2632.08 2547.73h-4v-2.05h4zM2632.08 2586.1l-1.96-.1-2.04.03v-2.08h4z" stroke="#3a414a" stroke-width=".05" fill="#3a414a"/><path d="M2876.47 2589.86c0 16.57-35.65 30-79.63 30-43.97 0-79.62-13.43-79.62-30s35.65-30 79.62-30c43.98 0 79.63 13.43 79.63 30z" stroke="#3a414a" stroke-width="4" fill="#fff"/><use xlink:href="#ak" transform="matrix(1,0,0,1,2722.2207469690516,2564.8571755420508) translate(11.555000000000001 30.025)"/><path d="M2539.22 2589.86c0 16.57-32.23 30-72 30-39.76 0-72-13.43-72-30s32.24-30 72-30c39.77 0 72 13.43 72 30z" stroke="#3a414a" stroke-width="4" fill="#fff"/><use xlink:href="#al" transform="matrix(1,0,0,1,2400.220987421433,2564.8571755420508) translate(43.005 30.025)"/><path d="M2721.17 2511.8h351.47a12 12 0 0 0 12-12v-584.72" stroke="#3a414a" stroke-width="4" fill="none"/><path d="M2721.22 2513.8h-2.04v-4h2.04zM3083.45 1913l1.63.1 1.56-.1v2.13h-4v-2.3z" stroke="#3a414a" stroke-width=".05" fill="#3a414a"/><path d="M2535.27 2511.8h-368.2a12 12 0 0 1-12-12v-452.53" stroke="#3a414a" stroke-width="4" fill="none"/><path d="M2537.27 2513.8h-2.05v-4h2.04zM2153.47 2045.15l1.6.12 1.62-.12.38-.08v2.25h-4v-2.25z" stroke="#3a414a" stroke-width=".05" fill="#3a414a"/><path d="M2796.84 2555.86v-32.07a12 12 0 0 0-12-12h-63.67" stroke="#3a414a" stroke-width="4" fill="none"/><path d="M2798.84 2557.92l-1.96-.06h-.26l-1.78.05v-2.1h4zM2721.22 2513.8h-2.04v-4h2.04z" stroke="#3a414a" stroke-width=".05" fill="#3a414a"/><path d="M2467.22 2555.86v-32.07a12 12 0 0 1 12-12h56.05" stroke="#3a414a" stroke-width="4" fill="none"/><path d="M2469.22 2557.92l-2-.06-2 .04v-2.1h4zM2537.27 2513.8h-2.05v-4h2.04z" stroke="#3a414a" stroke-width=".05" fill="#3a414a"/><path d="M2621.92 2166.16a9.67 9.67 0 0 1 12.33 0l67.67 56a6.62 6.62 0 0 1 0 10.2l-67.67 56a9.67 9.67 0 0 1-12.33 0l-67.67-56a6.62 6.62 0 0 1 0-10.2z" stroke="#3a414a" stroke-width="4" fill="#fff"/><use xlink:href="#am" transform="matrix(1,0,0,1,2553.082852424978,2166.0571838148153) translate(51.96827160493827 64.08055555555555)"/><path d="M2628.22 2475.9v-90.58a.07.07 0 0 0-.07-.07.07.07 0 0 1-.07-.07v-90.58" stroke="#3a414a" stroke-width="4" fill="none"/><path d="M2630.22 2477.9h-4v-2.05h4zM2626.47 2292.5l1.6.1 1.62-.1.38-.1v2.25h-4v-2.25z" stroke="#3a414a" stroke-width=".05" fill="#3a414a"/><path d="M2628.08 2159.93V2015.8" stroke="#3a414a" stroke-width="4" fill="none"/><path d="M2630.08 2162.13l-.4-.1-1.6-.1-1.6.1-.4.1v-2.25h4zM2630.08 2015.87h-4v-2.05h4z" stroke="#3a414a" stroke-width=".05" fill="#3a414a"/><path d="M2621.25 1944.05V1912" stroke="#3a414a" stroke-width="4" fill="none"/><path d="M2623.25 1946.05h-4V1944h4zM2621.23 1910l2.02-.03v2.08h-4v-2.12z" stroke="#3a414a" stroke-width=".05" fill="#3a414a"/><path d="M1095.08 838c0 16.57-35.8 30-80 30-44.18 0-80-13.43-80-30s35.82-30 80-30c44.2 0 80 13.43 80 30z" stroke="#3a414a" stroke-width="4" fill="#fff"/><g><use xlink:href="#an" transform="matrix(1,0,0,1,940.0830127265655,812.9999999999493) translate(22.529999999999994 30.025)"/></g><path d="M1099.08 838h20.7a12 12 0 0 0 12-12v-70.87a12 12 0 0 1 12-12h20.68" stroke="#3a414a" stroke-width="4" fill="none"/><path d="M1099.13 840h-2.2l.05-.3.08-.86.02-.8v-.18l-.03-.8-.1-.86-.02-.2h2.2zM1166.47 745.13h-2.06v-4h2.06z" stroke="#3a414a" stroke-width=".05" fill="#3a414a"/><path d="M1595.8 1863.05h-13.03a12 12 0 0 0-12 12v154.82a12 12 0 0 1-12 12h-13.02" stroke="#3a414a" stroke-width="4" fill="none"/><path d="M1597.8 1865.05h-2.05v-4h2.04zM1545.8 2043.87h-2.2l.06-.44.07-.78.02-.76v-.2l-.03-.76-.08-.78-.05-.3h2.2z" stroke="#3a414a" stroke-width=".05" fill="#3a414a"/><path d="M1541.75 2041.87c0 16.57-37.3 30-83.33 30s-83.34-13.43-83.34-30 37.3-30 83.34-30c46.02 0 83.33 13.43 83.33 30z" stroke="#3a414a" stroke-width="4" fill="#fff"/><g><use xlink:href="#ao" transform="matrix(1,0,0,1,1380.0830127265656,2016.866666666616) translate(17.60499999999999 30.025)"/></g><defs><path fill="#3a414a" d="M205 0l-28-72H64L36 0H1l101-248h38L239 0h-34zm-38-99l-47-123c-12 45-31 82-46 123h93" id="ap"/><path fill="#3a414a" d="M232-93c-1 65-40 97-104 97C67 4 28-28 28-90v-158h33c8 89-33 224 67 224 102 0 64-133 71-224h33v155" id="aq"/><path fill="#3a414a" d="M127-220V0H93v-220H8v-28h204v28h-85" id="ar"/><path fill="#3a414a" d="M140-251c81 0 123 46 123 126C263-46 219 4 140 4 59 4 17-45 17-125s42-126 123-126zm0 227c63 0 89-41 89-101s-29-99-89-99c-61 0-89 39-89 99S79-25 140-24" id="as"/><path fill="#3a414a" d="M233-177c-1 41-23 64-60 70L243 0h-38l-65-103H63V0H30v-248c88 3 205-21 203 71zM63-129c60-2 137 13 137-47 0-61-80-42-137-45v92" id="at"/><g id="a"><use transform="matrix(0.21604938271604904,0,0,0.21604938271604904,0,0)" xlink:href="#ap"/><use transform="matrix(0.21604938271604904,0,0,0.21604938271604904,51.85185185185177,0)" xlink:href="#aq"/><use transform="matrix(0.21604938271604904,0,0,0.21604938271604904,107.80864197530846,0)" xlink:href="#ar"/><use transform="matrix(0.21604938271604904,0,0,0.21604938271604904,153.61111111111086,0)" xlink:href="#as"/><use transform="matrix(0.21604938271604904,0,0,0.21604938271604904,214.1049382716046,0)" xlink:href="#at"/></g><path fill="#3a414a" d="M30-248c118-7 216 8 213 122C240-48 200 0 122 0H30v-248zM63-27c89 8 146-16 146-99s-60-101-146-95v194" id="au"/><path fill="#3a414a" d="M141-36C126-15 110 5 73 4 37 3 15-17 15-53c-1-64 63-63 125-63 3-35-9-54-41-54-24 1-41 7-42 31l-33-3c5-37 33-52 76-52 45 0 72 20 72 64v82c-1 20 7 32 28 27v20c-31 9-61-2-59-35zM48-53c0 20 12 33 32 33 41-3 63-29 60-74-43 2-92-5-92 41" id="av"/><path fill="#3a414a" d="M59-47c-2 24 18 29 38 22v24C64 9 27 4 27-40v-127H5v-23h24l9-43h21v43h35v23H59v120" id="aw"/><path fill="#3a414a" d="M115-194c53 0 69 39 70 98 0 66-23 100-70 100C84 3 66-7 56-30L54 0H23l1-261h32v101c10-23 28-34 59-34zm-8 174c40 0 45-34 45-75 0-40-5-75-45-74-42 0-51 32-51 76 0 43 10 73 51 73" id="ax"/><path fill="#3a414a" d="M135-143c-3-34-86-38-87 0 15 53 115 12 119 90S17 21 10-45l28-5c4 36 97 45 98 0-10-56-113-15-118-90-4-57 82-63 122-42 12 7 21 19 24 35" id="ay"/><path fill="#3a414a" d="M100-194c63 0 86 42 84 106H49c0 40 14 67 53 68 26 1 43-12 49-29l28 8c-11 28-37 45-77 45C44 4 14-33 15-96c1-61 26-98 85-98zm52 81c6-60-76-77-97-28-3 7-6 17-6 28h103" id="az"/><g id="b"><use transform="matrix(0.21604938271604904,0,0,0.21604938271604904,0,0)" xlink:href="#au"/><use transform="matrix(0.21604938271604904,0,0,0.21604938271604904,55.9567901234567,0)" xlink:href="#av"/><use transform="matrix(0.21604938271604904,0,0,0.21604938271604904,99.16666666666652,0)" xlink:href="#aw"/><use transform="matrix(0.21604938271604904,0,0,0.21604938271604904,120.77160493827141,0)" xlink:href="#av"/><use transform="matrix(0.21604938271604904,0,0,0.21604938271604904,163.98148148148124,0)" xlink:href="#ax"/><use transform="matrix(0.21604938271604904,0,0,0.21604938271604904,207.19135802469106,0)" xlink:href="#av"/><use transform="matrix(0.21604938271604904,0,0,0.21604938271604904,250.40123456790087,0)" xlink:href="#ay"/><use transform="matrix(0.21604938271604904,0,0,0.21604938271604904,289.29012345678973,0)" xlink:href="#az"/></g><path fill="#3a414a" d="M30 0v-248h187v28H63v79h144v27H63v87h162V0H30" id="aA"/><g id="c"><use transform="matrix(0.21604938271604904,0,0,0.21604938271604904,0,0)" xlink:href="#aA"/><use transform="matrix(0.21604938271604904,0,0,0.21604938271604904,51.85185185185177,0)" xlink:href="#at"/></g><path fill="#3a414a" d="M24-231v-30h32v30H24zM24 0v-190h32V0H24" id="aB"/><path fill="#3a414a" d="M177-190C167-65 218 103 67 71c-23-6-38-20-44-43l32-5c15 47 100 32 89-28v-30C133-14 115 1 83 1 29 1 15-40 15-95c0-56 16-97 71-98 29-1 48 16 59 35 1-10 0-23 2-32h30zM94-22c36 0 50-32 50-73 0-42-14-75-50-75-39 0-46 34-46 75s6 73 46 73" id="aC"/><path fill="#3a414a" d="M114-163C36-179 61-72 57 0H25l-1-190h30c1 12-1 29 2 39 6-27 23-49 58-41v29" id="aD"/><path fill="#3a414a" d="M210-169c-67 3-38 105-44 169h-31v-121c0-29-5-50-35-48C34-165 62-65 56 0H25l-1-190h30c1 10-1 24 2 32 10-44 99-50 107 0 11-21 27-35 58-36 85-2 47 119 55 194h-31v-121c0-29-5-49-35-48" id="aE"/><g id="d"><use transform="matrix(0.21604938271604904,0,0,0.21604938271604904,0,0)" xlink:href="#au"/><use transform="matrix(0.21604938271604904,0,0,0.21604938271604904,55.9567901234567,0)" xlink:href="#aB"/><use transform="matrix(0.21604938271604904,0,0,0.21604938271604904,73.02469135802457,0)" xlink:href="#av"/><use transform="matrix(0.21604938271604904,0,0,0.21604938271604904,116.23456790123439,0)" xlink:href="#aC"/><use transform="matrix(0.21604938271604904,0,0,0.21604938271604904,159.4444444444442,0)" xlink:href="#aD"/><use transform="matrix(0.21604938271604904,0,0,0.21604938271604904,185.15432098765405,0)" xlink:href="#av"/><use transform="matrix(0.21604938271604904,0,0,0.21604938271604904,228.3641975308639,0)" xlink:href="#aE"/></g><path fill="#3a414a" d="M185-189c-5-48-123-54-124 2 14 75 158 14 163 119 3 78-121 87-175 55-17-10-28-26-33-46l33-7c5 56 141 63 141-1 0-78-155-14-162-118-5-82 145-84 179-34 5 7 8 16 11 25" id="aF"/><path fill="#3a414a" d="M108 0H70L1-190h34L89-25l56-165h34" id="aG"/><path fill="#3a414a" d="M96-169c-40 0-48 33-48 73s9 75 48 75c24 0 41-14 43-38l32 2c-6 37-31 61-74 61-59 0-76-41-82-99-10-93 101-131 147-64 4 7 5 14 7 22l-32 3c-4-21-16-35-41-35" id="aH"/><g id="e"><use transform="matrix(0.06234567901234567,0,0,0.06234567901234567,0,0)" xlink:href="#aF"/><use transform="matrix(0.06234567901234567,0,0,0.06234567901234567,14.96296296296296,0)" xlink:href="#az"/><use transform="matrix(0.06234567901234567,0,0,0.06234567901234567,27.432098765432094,0)" xlink:href="#aD"/><use transform="matrix(0.06234567901234567,0,0,0.06234567901234567,34.85123456790123,0)" xlink:href="#aG"/><use transform="matrix(0.06234567901234567,0,0,0.06234567901234567,46.07345679012345,0)" xlink:href="#aB"/><use transform="matrix(0.06234567901234567,0,0,0.06234567901234567,50.99876543209876,0)" xlink:href="#aH"/><use transform="matrix(0.06234567901234567,0,0,0.06234567901234567,62.22098765432098,0)" xlink:href="#az"/></g><path fill="#3a414a" d="M212-179c-10-28-35-45-73-45-59 0-87 40-87 99 0 60 29 101 89 101 43 0 62-24 78-52l27 14C228-24 195 4 139 4 59 4 22-46 18-125c-6-104 99-153 187-111 19 9 31 26 39 46" id="aI"/><path fill="#3a414a" d="M117-194c89-4 53 116 60 194h-32v-121c0-31-8-49-39-48C34-167 62-67 57 0H25l-1-190h30c1 10-1 24 2 32 11-22 29-35 61-36" id="aJ"/><g id="f"><use transform="matrix(0.06234567901234567,0,0,0.06234567901234567,0,0)" xlink:href="#aI"/><use transform="matrix(0.06234567901234567,0,0,0.06234567901234567,16.147530864197527,0)" xlink:href="#az"/><use transform="matrix(0.06234567901234567,0,0,0.06234567901234567,28.61666666666666,0)" xlink:href="#aJ"/><use transform="matrix(0.06234567901234567,0,0,0.06234567901234567,41.08580246913579,0)" xlink:href="#aw"/><use transform="matrix(0.06234567901234567,0,0,0.06234567901234567,47.320370370370355,0)" xlink:href="#az"/><use transform="matrix(0.06234567901234567,0,0,0.06234567901234567,59.78950617283949,0)" xlink:href="#aD"/><use transform="matrix(0.06234567901234567,0,0,0.06234567901234567,67.20864197530862,0)" xlink:href="#ay"/></g><path fill="#3a414a" d="M85-194c31 0 48 13 60 33l-1-100h32l1 261h-30c-2-10 0-23-3-31C134-8 116 4 85 4 32 4 16-35 15-94c0-66 23-100 70-100zm9 24c-40 0-46 34-46 75 0 40 6 74 45 74 42 0 51-32 51-76 0-42-9-74-50-73" id="aK"/><g id="g"><use transform="matrix(0.05,0,0,0.05,0,0)" xlink:href="#ay"/><use transform="matrix(0.05,0,0,0.05,9,0)" xlink:href="#aH"/><use transform="matrix(0.05,0,0,0.05,18,0)" xlink:href="#aB"/><use transform="matrix(0.05,0,0,0.05,21.95,0)" xlink:href="#aK"/><path fill="#3a414a" d="M-.9 1.25h33.75v1.32H-.9z"/></g><g id="h"><use transform="matrix(0.05,0,0,0.05,0,0)" xlink:href="#av"/><use transform="matrix(0.05,0,0,0.05,10,0)" xlink:href="#aK"/><use transform="matrix(0.05,0,0,0.05,20,0)" xlink:href="#aK"/><use transform="matrix(0.05,0,0,0.05,30,0)" xlink:href="#aD"/><use transform="matrix(0.05,0,0,0.05,35.95,0)" xlink:href="#az"/><use transform="matrix(0.05,0,0,0.05,45.95,0)" xlink:href="#ay"/><use transform="matrix(0.05,0,0,0.05,54.95,0)" xlink:href="#ay"/></g><path fill="#3a414a" d="M115-194c55 1 70 41 70 98S169 2 115 4C84 4 66-9 55-30l1 105H24l-1-265h31l2 30c10-21 28-34 59-34zm-8 174c40 0 45-34 45-75s-6-73-45-74c-42 0-51 32-51 76 0 43 10 73 51 73" id="aL"/><path fill="#3a414a" d="M106-169C34-169 62-67 57 0H25v-261h32l-1 103c12-21 28-36 61-36 89 0 53 116 60 194h-32v-121c2-32-8-49-39-48" id="aM"/><path fill="#3a414a" d="M100-194c62-1 85 37 85 99 1 63-27 99-86 99S16-35 15-95c0-66 28-99 85-99zM99-20c44 1 53-31 53-75 0-43-8-75-51-75s-53 32-53 75 10 74 51 75" id="aN"/><path fill="#3a414a" d="M-5 72V49h209v23H-5" id="aO"/><path fill="#3a414a" d="M84 4C-5 8 30-112 23-190h32v120c0 31 7 50 39 49 72-2 45-101 50-169h31l1 190h-30c-1-10 1-25-2-33-11 22-28 36-60 37" id="aP"/><g id="i"><use transform="matrix(0.05,0,0,0.05,0,0)" xlink:href="#aL"/><use transform="matrix(0.05,0,0,0.05,10,0)" xlink:href="#aM"/><use transform="matrix(0.05,0,0,0.05,20,0)" xlink:href="#aN"/><use transform="matrix(0.05,0,0,0.05,30,0)" xlink:href="#aJ"/><use transform="matrix(0.05,0,0,0.05,40,0)" xlink:href="#az"/><use transform="matrix(0.05,0,0,0.05,50,0)" xlink:href="#aO"/><use transform="matrix(0.05,0,0,0.05,60,0)" xlink:href="#aJ"/><use transform="matrix(0.05,0,0,0.05,70,0)" xlink:href="#aP"/><use transform="matrix(0.05,0,0,0.05,80,0)" xlink:href="#aE"/><use transform="matrix(0.05,0,0,0.05,94.95,0)" xlink:href="#ax"/><use transform="matrix(0.05,0,0,0.05,104.95,0)" xlink:href="#az"/><use transform="matrix(0.05,0,0,0.05,114.95,0)" xlink:href="#aD"/></g><path fill="#3a414a" d="M179-190L93 31C79 59 56 82 12 73V49c39 6 53-20 64-50L1-190h34L92-34l54-156h33" id="aQ"/><g id="j"><use transform="matrix(0.05,0,0,0.05,0,0)" xlink:href="#aN"/><use transform="matrix(0.05,0,0,0.05,10,0)" xlink:href="#aL"/><use transform="matrix(0.05,0,0,0.05,20,0)" xlink:href="#az"/><use transform="matrix(0.05,0,0,0.05,30,0)" xlink:href="#aJ"/><use transform="matrix(0.05,0,0,0.05,40,0)" xlink:href="#aO"/><use transform="matrix(0.05,0,0,0.05,50,0)" xlink:href="#aN"/><use transform="matrix(0.05,0,0,0.05,60,0)" xlink:href="#aJ"/><use transform="matrix(0.05,0,0,0.05,70,0)" xlink:href="#aO"/><use transform="matrix(0.05,0,0,0.05,80,0)" xlink:href="#ay"/><use transform="matrix(0.05,0,0,0.05,89,0)" xlink:href="#av"/><use transform="matrix(0.05,0,0,0.05,99,0)" xlink:href="#aw"/><use transform="matrix(0.05,0,0,0.05,104,0)" xlink:href="#aP"/><use transform="matrix(0.05,0,0,0.05,114,0)" xlink:href="#aD"/><use transform="matrix(0.05,0,0,0.05,119.95,0)" xlink:href="#aK"/><use transform="matrix(0.05,0,0,0.05,129.95,0)" xlink:href="#av"/><use transform="matrix(0.05,0,0,0.05,139.95,0)" xlink:href="#aQ"/></g><path fill="#3a414a" d="M24 0v-261h32V0H24" id="aR"/><g id="k"><use transform="matrix(0.06234567901234567,0,0,0.06234567901234567,0,0)" xlink:href="#aA"/><use transform="matrix(0.06234567901234567,0,0,0.06234567901234567,14.96296296296296,0)" xlink:href="#aE"/><use transform="matrix(0.06234567901234567,0,0,0.06234567901234567,33.60432098765431,0)" xlink:href="#aL"/><use transform="matrix(0.06234567901234567,0,0,0.06234567901234567,46.073456790123444,0)" xlink:href="#aR"/><use transform="matrix(0.06234567901234567,0,0,0.06234567901234567,50.99876543209875,0)" xlink:href="#aN"/><use transform="matrix(0.06234567901234567,0,0,0.06234567901234567,63.46790123456788,0)" xlink:href="#aQ"/><use transform="matrix(0.06234567901234567,0,0,0.06234567901234567,74.6901234567901,0)" xlink:href="#az"/><use transform="matrix(0.06234567901234567,0,0,0.06234567901234567,87.15925925925924,0)" xlink:href="#az"/><use transform="matrix(0.06234567901234567,0,0,0.06234567901234567,99.62839506172838,0)" xlink:href="#ay"/></g><g id="l"><use transform="matrix(0.05,0,0,0.05,0,0)" xlink:href="#az"/><use transform="matrix(0.05,0,0,0.05,10,0)" xlink:href="#aB"/><use transform="matrix(0.05,0,0,0.05,13.949999999999998,0)" xlink:href="#aK"/><path fill="#3a414a" d="M-.9 1.25h25.75v1.32H-.9z"/></g><g id="m"><use transform="matrix(0.05,0,0,0.05,0,0)" xlink:href="#aJ"/><use transform="matrix(0.05,0,0,0.05,10,0)" xlink:href="#av"/><use transform="matrix(0.05,0,0,0.05,20,0)" xlink:href="#aE"/><use transform="matrix(0.05,0,0,0.05,34.95,0)" xlink:href="#az"/></g><g id="n"><use transform="matrix(0.05,0,0,0.05,0,0)" xlink:href="#az"/><use transform="matrix(0.05,0,0,0.05,10,0)" xlink:href="#aE"/><use transform="matrix(0.05,0,0,0.05,24.950000000000003,0)" xlink:href="#av"/><use transform="matrix(0.05,0,0,0.05,34.95,0)" xlink:href="#aB"/><use transform="matrix(0.05,0,0,0.05,38.900000000000006,0)" xlink:href="#aR"/><use transform="matrix(0.05,0,0,0.05,42.85000000000001,0)" xlink:href="#aO"/><use transform="matrix(0.05,0,0,0.05,52.85,0)" xlink:href="#av"/><use transform="matrix(0.05,0,0,0.05,62.85,0)" xlink:href="#aK"/><use transform="matrix(0.05,0,0,0.05,72.85000000000001,0)" xlink:href="#aK"/><use transform="matrix(0.05,0,0,0.05,82.85000000000001,0)" xlink:href="#aD"/><use transform="matrix(0.05,0,0,0.05,88.80000000000001,0)" xlink:href="#az"/><use transform="matrix(0.05,0,0,0.05,98.80000000000001,0)" xlink:href="#ay"/><use transform="matrix(0.05,0,0,0.05,107.80000000000001,0)" xlink:href="#ay"/></g><path fill="#3a414a" d="M33 0v-248h34V0H33" id="aS"/><g id="o"><use transform="matrix(0.0685185185185185,0,0,0.0685185185185185,0,0)" xlink:href="#aS"/><use transform="matrix(0.0685185185185185,0,0,0.0685185185185185,6.85185185185185,0)" xlink:href="#aF"/><use transform="matrix(0.0685185185185185,0,0,0.0685185185185185,23.29629629629629,0)" xlink:href="#ap"/></g><path fill="#3a414a" d="M240 0l2-218c-23 76-54 145-80 218h-23L58-218 59 0H30v-248h44l77 211c21-75 51-140 76-211h43V0h-30" id="aT"/><g id="p"><use transform="matrix(0.06234567901234567,0,0,0.06234567901234567,0,0)" xlink:href="#aT"/><use transform="matrix(0.06234567901234567,0,0,0.06234567901234567,18.641358024691353,0)" xlink:href="#av"/><use transform="matrix(0.06234567901234567,0,0,0.06234567901234567,31.110493827160486,0)" xlink:href="#aJ"/><use transform="matrix(0.06234567901234567,0,0,0.06234567901234567,43.57962962962962,0)" xlink:href="#av"/><use transform="matrix(0.06234567901234567,0,0,0.06234567901234567,56.048765432098755,0)" xlink:href="#aC"/><use transform="matrix(0.06234567901234567,0,0,0.06234567901234567,68.51790123456789,0)" xlink:href="#az"/><use transform="matrix(0.06234567901234567,0,0,0.06234567901234567,80.98703703703703,0)" xlink:href="#aD"/><use transform="matrix(0.06234567901234567,0,0,0.06234567901234567,88.40617283950616,0)" xlink:href="#ay"/></g><g id="q"><use transform="matrix(0.06234567901234567,0,0,0.06234567901234567,0,0)" xlink:href="#at"/><use transform="matrix(0.06234567901234567,0,0,0.06234567901234567,16.147530864197527,0)" xlink:href="#az"/><use transform="matrix(0.06234567901234567,0,0,0.06234567901234567,28.61666666666666,0)" xlink:href="#aH"/><use transform="matrix(0.06234567901234567,0,0,0.06234567901234567,39.83888888888888,0)" xlink:href="#az"/><use transform="matrix(0.06234567901234567,0,0,0.06234567901234567,52.308024691358014,0)" xlink:href="#aL"/><use transform="matrix(0.06234567901234567,0,0,0.06234567901234567,64.77716049382715,0)" xlink:href="#aw"/><use transform="matrix(0.06234567901234567,0,0,0.06234567901234567,71.01172839506172,0)" xlink:href="#aB"/><use transform="matrix(0.06234567901234567,0,0,0.06234567901234567,75.93703703703703,0)" xlink:href="#aN"/><use transform="matrix(0.06234567901234567,0,0,0.06234567901234567,88.40617283950616,0)" xlink:href="#aJ"/><use transform="matrix(0.06234567901234567,0,0,0.06234567901234567,100.8753086419753,0)" xlink:href="#aB"/><use transform="matrix(0.06234567901234567,0,0,0.06234567901234567,105.8006172839506,0)" xlink:href="#ay"/><use transform="matrix(0.06234567901234567,0,0,0.06234567901234567,117.02283950617282,0)" xlink:href="#aw"/><use transform="matrix(0.06234567901234567,0,0,0.06234567901234567,123.25740740740738,0)" xlink:href="#ay"/></g><g id="r"><use transform="matrix(0.06234567901234567,0,0,0.06234567901234567,0,0)" xlink:href="#aT"/><use transform="matrix(0.06234567901234567,0,0,0.06234567901234567,18.641358024691353,0)" xlink:href="#az"/><use transform="matrix(0.06234567901234567,0,0,0.06234567901234567,31.110493827160486,0)" xlink:href="#aH"/><use transform="matrix(0.06234567901234567,0,0,0.06234567901234567,42.332716049382704,0)" xlink:href="#aM"/><use transform="matrix(0.06234567901234567,0,0,0.06234567901234567,54.801851851851836,0)" xlink:href="#av"/><use transform="matrix(0.06234567901234567,0,0,0.06234567901234567,67.27098765432098,0)" xlink:href="#aJ"/><use transform="matrix(0.06234567901234567,0,0,0.06234567901234567,79.74012345679012,0)" xlink:href="#aB"/><use transform="matrix(0.06234567901234567,0,0,0.06234567901234567,84.66543209876542,0)" xlink:href="#aH"/><use transform="matrix(0.06234567901234567,0,0,0.06234567901234567,95.88765432098764,0)" xlink:href="#ay"/></g><g id="s"><use transform="matrix(0.05,0,0,0.05,0,0)" xlink:href="#ay"/><use transform="matrix(0.05,0,0,0.05,9,0)" xlink:href="#az"/><use transform="matrix(0.05,0,0,0.05,19,0)" xlink:href="#aD"/><use transform="matrix(0.05,0,0,0.05,24.95,0)" xlink:href="#aG"/><use transform="matrix(0.05,0,0,0.05,33.95,0)" xlink:href="#aB"/><use transform="matrix(0.05,0,0,0.05,37.900000000000006,0)" xlink:href="#aH"/><use transform="matrix(0.05,0,0,0.05,46.900000000000006,0)" xlink:href="#az"/><use transform="matrix(0.05,0,0,0.05,56.900000000000006,0)" xlink:href="#aO"/><use transform="matrix(0.05,0,0,0.05,66.9,0)" xlink:href="#aH"/><use transform="matrix(0.05,0,0,0.05,75.9,0)" xlink:href="#az"/><use transform="matrix(0.05,0,0,0.05,85.9,0)" xlink:href="#aJ"/><use transform="matrix(0.05,0,0,0.05,95.9,0)" xlink:href="#aw"/><use transform="matrix(0.05,0,0,0.05,100.9,0)" xlink:href="#az"/><use transform="matrix(0.05,0,0,0.05,110.9,0)" xlink:href="#aD"/><use transform="matrix(0.05,0,0,0.05,116.85000000000001,0)" xlink:href="#aO"/><use transform="matrix(0.05,0,0,0.05,126.85000000000001,0)" xlink:href="#aB"/><use transform="matrix(0.05,0,0,0.05,130.8,0)" xlink:href="#aK"/></g><g id="t"><use transform="matrix(0.05,0,0,0.05,0,0)" xlink:href="#aD"/><use transform="matrix(0.05,0,0,0.05,5.95,0)" xlink:href="#aN"/><use transform="matrix(0.05,0,0,0.05,15.949999999999998,0)" xlink:href="#aR"/><use transform="matrix(0.05,0,0,0.05,19.9,0)" xlink:href="#az"/></g><path fill="#3a414a" d="M266 0h-40l-56-210L115 0H75L2-248h35L96-30l15-64 43-154h32l59 218 59-218h35" id="aU"/><path fill="#3a414a" d="M143 0L79-87 56-68V0H24v-261h32v163l83-92h37l-77 82L181 0h-38" id="aV"/><g id="u"><use transform="matrix(0.06234567901234567,0,0,0.06234567901234567,0,0)" xlink:href="#aU"/><use transform="matrix(0.06234567901234567,0,0,0.06234567901234567,20.698765432098764,0)" xlink:href="#aN"/><use transform="matrix(0.06234567901234567,0,0,0.06234567901234567,33.16790123456789,0)" xlink:href="#aD"/><use transform="matrix(0.06234567901234567,0,0,0.06234567901234567,40.58703703703703,0)" xlink:href="#aV"/><use transform="matrix(0.06234567901234567,0,0,0.06234567901234567,51.80925925925925,0)" xlink:href="#ay"/></g><g id="v"><use transform="matrix(0.06234567901234567,0,0,0.06234567901234567,0,0)" xlink:href="#ap"/><use transform="matrix(0.06234567901234567,0,0,0.06234567901234567,14.96296296296296,0)" xlink:href="#aw"/></g><g id="w"><use transform="matrix(0.05,0,0,0.05,0,0)" xlink:href="#aE"/><use transform="matrix(0.05,0,0,0.05,14.950000000000001,0)" xlink:href="#az"/><use transform="matrix(0.05,0,0,0.05,24.950000000000003,0)" xlink:href="#aH"/><use transform="matrix(0.05,0,0,0.05,33.95,0)" xlink:href="#aM"/><use transform="matrix(0.05,0,0,0.05,43.95,0)" xlink:href="#av"/><use transform="matrix(0.05,0,0,0.05,53.95,0)" xlink:href="#aJ"/><use transform="matrix(0.05,0,0,0.05,63.95,0)" xlink:href="#aB"/><use transform="matrix(0.05,0,0,0.05,67.9,0)" xlink:href="#aH"/><use transform="matrix(0.05,0,0,0.05,76.9,0)" xlink:href="#aO"/><use transform="matrix(0.05,0,0,0.05,86.9,0)" xlink:href="#aM"/><use transform="matrix(0.05,0,0,0.05,96.9,0)" xlink:href="#aN"/><use transform="matrix(0.05,0,0,0.05,106.9,0)" xlink:href="#aP"/><use transform="matrix(0.05,0,0,0.05,116.9,0)" xlink:href="#aD"/><use transform="matrix(0.05,0,0,0.05,122.85000000000001,0)" xlink:href="#aR"/><use transform="matrix(0.05,0,0,0.05,126.80000000000001,0)" xlink:href="#aQ"/><use transform="matrix(0.05,0,0,0.05,135.8,0)" xlink:href="#aO"/><use transform="matrix(0.05,0,0,0.05,145.8,0)" xlink:href="#aD"/><use transform="matrix(0.05,0,0,0.05,151.75,0)" xlink:href="#av"/><use transform="matrix(0.05,0,0,0.05,161.75,0)" xlink:href="#aw"/><use transform="matrix(0.05,0,0,0.05,166.75,0)" xlink:href="#az"/></g><g id="x"><use transform="matrix(0.05,0,0,0.05,0,0)" xlink:href="#ay"/><use transform="matrix(0.05,0,0,0.05,9,0)" xlink:href="#av"/><use transform="matrix(0.05,0,0,0.05,19,0)" xlink:href="#aR"/><use transform="matrix(0.05,0,0,0.05,22.95,0)" xlink:href="#av"/><use transform="matrix(0.05,0,0,0.05,32.95,0)" xlink:href="#aD"/><use transform="matrix(0.05,0,0,0.05,38.900000000000006,0)" xlink:href="#aQ"/></g><path fill="#3a414a" d="M206 0h-36l-40-164L89 0H53L-1-190h32L70-26l43-164h34l41 164 42-164h31" id="aW"/><g id="y"><use transform="matrix(0.05,0,0,0.05,0,0)" xlink:href="#aW"/><use transform="matrix(0.05,0,0,0.05,12.950000000000001,0)" xlink:href="#av"/><use transform="matrix(0.05,0,0,0.05,22.950000000000003,0)" xlink:href="#aC"/><use transform="matrix(0.05,0,0,0.05,32.95,0)" xlink:href="#az"/></g><g id="z"><use transform="matrix(0.06234567901234567,0,0,0.06234567901234567,0,0)" xlink:href="#aF"/><use transform="matrix(0.06234567901234567,0,0,0.06234567901234567,14.96296296296296,0)" xlink:href="#az"/><use transform="matrix(0.06234567901234567,0,0,0.06234567901234567,27.432098765432094,0)" xlink:href="#aD"/><use transform="matrix(0.06234567901234567,0,0,0.06234567901234567,34.85123456790123,0)" xlink:href="#aG"/><use transform="matrix(0.06234567901234567,0,0,0.06234567901234567,46.07345679012345,0)" xlink:href="#aB"/><use transform="matrix(0.06234567901234567,0,0,0.06234567901234567,50.99876543209876,0)" xlink:href="#aH"/><use transform="matrix(0.06234567901234567,0,0,0.06234567901234567,62.22098765432098,0)" xlink:href="#az"/><use transform="matrix(0.06234567901234567,0,0,0.06234567901234567,74.6901234567901,0)" xlink:href="#ay"/></g><g id="A"><use transform="matrix(0.05,0,0,0.05,0,0)" xlink:href="#ay"/><use transform="matrix(0.05,0,0,0.05,9,0)" xlink:href="#aB"/><use transform="matrix(0.05,0,0,0.05,12.949999999999998,0)" xlink:href="#aK"/><path fill="#3a414a" d="M-.9 1.25h24.75v1.32H-.9z"/></g><g id="B"><use transform="matrix(0.05,0,0,0.05,0,0)" xlink:href="#aK"/><use transform="matrix(0.05,0,0,0.05,10,0)" xlink:href="#aP"/><use transform="matrix(0.05,0,0,0.05,20,0)" xlink:href="#aD"/><use transform="matrix(0.05,0,0,0.05,25.950000000000003,0)" xlink:href="#av"/><use transform="matrix(0.05,0,0,0.05,35.95,0)" xlink:href="#aw"/><use transform="matrix(0.05,0,0,0.05,40.95,0)" xlink:href="#aB"/><use transform="matrix(0.05,0,0,0.05,44.900000000000006,0)" xlink:href="#aN"/><use transform="matrix(0.05,0,0,0.05,54.900000000000006,0)" xlink:href="#aJ"/></g><path fill="#3a414a" d="M30-248c87 1 191-15 191 75 0 78-77 80-158 76V0H30v-248zm33 125c57 0 124 11 124-50 0-59-68-47-124-48v98" id="aX"/><g id="C"><use transform="matrix(0.06234567901234567,0,0,0.06234567901234567,0,0)" xlink:href="#aX"/><use transform="matrix(0.06234567901234567,0,0,0.06234567901234567,14.96296296296296,0)" xlink:href="#aD"/><use transform="matrix(0.06234567901234567,0,0,0.06234567901234567,22.382098765432094,0)" xlink:href="#aB"/><use transform="matrix(0.06234567901234567,0,0,0.06234567901234567,27.307407407407403,0)" xlink:href="#aH"/><use transform="matrix(0.06234567901234567,0,0,0.06234567901234567,38.529629629629625,0)" xlink:href="#az"/></g><g id="D"><use transform="matrix(0.05,0,0,0.05,0,0)" xlink:href="#ay"/><use transform="matrix(0.05,0,0,0.05,9,0)" xlink:href="#az"/><use transform="matrix(0.05,0,0,0.05,19,0)" xlink:href="#aD"/><use transform="matrix(0.05,0,0,0.05,24.95,0)" xlink:href="#aG"/><use transform="matrix(0.05,0,0,0.05,33.95,0)" xlink:href="#aB"/><use transform="matrix(0.05,0,0,0.05,37.900000000000006,0)" xlink:href="#aH"/><use transform="matrix(0.05,0,0,0.05,46.900000000000006,0)" xlink:href="#az"/><use transform="matrix(0.05,0,0,0.05,56.900000000000006,0)" xlink:href="#aO"/><use transform="matrix(0.05,0,0,0.05,66.9,0)" xlink:href="#aw"/><use transform="matrix(0.05,0,0,0.05,71.9,0)" xlink:href="#aQ"/><use transform="matrix(0.05,0,0,0.05,80.9,0)" xlink:href="#aL"/><use transform="matrix(0.05,0,0,0.05,90.9,0)" xlink:href="#az"/></g><g id="E"><use transform="matrix(0.05,0,0,0.05,0,0)" xlink:href="#av"/><use transform="matrix(0.05,0,0,0.05,10,0)" xlink:href="#aE"/><use transform="matrix(0.05,0,0,0.05,24.950000000000003,0)" xlink:href="#aN"/><use transform="matrix(0.05,0,0,0.05,34.95,0)" xlink:href="#aP"/><use transform="matrix(0.05,0,0,0.05,44.95,0)" xlink:href="#aJ"/><use transform="matrix(0.05,0,0,0.05,54.95,0)" xlink:href="#aw"/></g><g id="F"><use transform="matrix(0.05,0,0,0.05,0,0)" xlink:href="#aH"/><use transform="matrix(0.05,0,0,0.05,9,0)" xlink:href="#av"/><use transform="matrix(0.05,0,0,0.05,19,0)" xlink:href="#aD"/></g><path fill="#3a414a" d="M87 75C49 33 22-17 22-94c0-76 28-126 65-167h31c-38 41-64 92-64 168S80 34 118 75H87" id="aY"/><path fill="#3a414a" d="M33-261c38 41 65 92 65 168S71 34 33 75H2C39 34 66-17 66-93S39-220 2-261h31" id="aZ"/><g id="G"><use transform="matrix(0.05,0,0,0.05,0,0)" xlink:href="#aY"/><use transform="matrix(0.05,0,0,0.05,5.95,0)" xlink:href="#aG"/><use transform="matrix(0.05,0,0,0.05,14.949999999999998,0)" xlink:href="#az"/><use transform="matrix(0.05,0,0,0.05,24.95,0)" xlink:href="#aM"/><use transform="matrix(0.05,0,0,0.05,34.95,0)" xlink:href="#aB"/><use transform="matrix(0.05,0,0,0.05,38.900000000000006,0)" xlink:href="#aH"/><use transform="matrix(0.05,0,0,0.05,47.900000000000006,0)" xlink:href="#aR"/><use transform="matrix(0.05,0,0,0.05,51.85,0)" xlink:href="#az"/><use transform="matrix(0.05,0,0,0.05,61.85,0)" xlink:href="#aZ"/></g><g id="H"><use transform="matrix(0.06234567901234567,0,0,0.06234567901234567,0,0)" xlink:href="#aI"/><use transform="matrix(0.06234567901234567,0,0,0.06234567901234567,16.147530864197527,0)" xlink:href="#aP"/><use transform="matrix(0.06234567901234567,0,0,0.06234567901234567,28.61666666666666,0)" xlink:href="#ay"/><use transform="matrix(0.06234567901234567,0,0,0.06234567901234567,39.83888888888888,0)" xlink:href="#aw"/><use transform="matrix(0.06234567901234567,0,0,0.06234567901234567,46.073456790123444,0)" xlink:href="#aN"/><use transform="matrix(0.06234567901234567,0,0,0.06234567901234567,58.54259259259258,0)" xlink:href="#aE"/><use transform="matrix(0.06234567901234567,0,0,0.06234567901234567,77.18395061728393,0)" xlink:href="#az"/><use transform="matrix(0.06234567901234567,0,0,0.06234567901234567,89.65308641975307,0)" xlink:href="#aD"/><use transform="matrix(0.06234567901234567,0,0,0.06234567901234567,97.0722222222222,0)" xlink:href="#ay"/></g><g id="I"><use transform="matrix(0.05,0,0,0.05,0,0)" xlink:href="#aH"/><use transform="matrix(0.05,0,0,0.05,9,0)" xlink:href="#aB"/><use transform="matrix(0.05,0,0,0.05,12.949999999999998,0)" xlink:href="#aK"/><path fill="#3a414a" d="M-.9 1.25h24.75v1.32H-.9z"/></g><g id="J"><use transform="matrix(0.05,0,0,0.05,0,0)" xlink:href="#aR"/><use transform="matrix(0.05,0,0,0.05,3.95,0)" xlink:href="#av"/><use transform="matrix(0.05,0,0,0.05,13.949999999999998,0)" xlink:href="#ay"/><use transform="matrix(0.05,0,0,0.05,22.95,0)" xlink:href="#aw"/><use transform="matrix(0.05,0,0,0.05,27.950000000000003,0)" xlink:href="#aO"/><use transform="matrix(0.05,0,0,0.05,37.95,0)" xlink:href="#aJ"/><use transform="matrix(0.05,0,0,0.05,47.95,0)" xlink:href="#av"/><use transform="matrix(0.05,0,0,0.05,57.95,0)" xlink:href="#aE"/><use transform="matrix(0.05,0,0,0.05,72.9,0)" xlink:href="#az"/></g><path fill="#3a414a" d="M101-234c-31-9-42 10-38 44h38v23H63V0H32v-167H5v-23h27c-7-52 17-82 69-68v24" id="ba"/><g id="K"><use transform="matrix(0.05,0,0,0.05,0,0)" xlink:href="#ba"/><use transform="matrix(0.05,0,0,0.05,5,0)" xlink:href="#aB"/><use transform="matrix(0.05,0,0,0.05,8.95,0)" xlink:href="#aD"/><use transform="matrix(0.05,0,0,0.05,14.899999999999999,0)" xlink:href="#ay"/><use transform="matrix(0.05,0,0,0.05,23.9,0)" xlink:href="#aw"/><use transform="matrix(0.05,0,0,0.05,28.899999999999995,0)" xlink:href="#aO"/><use transform="matrix(0.05,0,0,0.05,38.9,0)" xlink:href="#aJ"/><use transform="matrix(0.05,0,0,0.05,48.9,0)" xlink:href="#av"/><use transform="matrix(0.05,0,0,0.05,58.900000000000006,0)" xlink:href="#aE"/><use transform="matrix(0.05,0,0,0.05,73.85,0)" xlink:href="#az"/></g><path fill="#3a414a" d="M137 0h-34L2-248h35l83 218 83-218h36" id="bb"/><g id="L"><use transform="matrix(0.06234567901234567,0,0,0.06234567901234567,0,0)" xlink:href="#bb"/><use transform="matrix(0.06234567901234567,0,0,0.06234567901234567,13.716049382716047,0)" xlink:href="#az"/><use transform="matrix(0.06234567901234567,0,0,0.06234567901234567,26.18518518518518,0)" xlink:href="#aM"/><use transform="matrix(0.06234567901234567,0,0,0.06234567901234567,38.654320987654316,0)" xlink:href="#aB"/><use transform="matrix(0.06234567901234567,0,0,0.06234567901234567,43.57962962962962,0)" xlink:href="#aH"/><use transform="matrix(0.06234567901234567,0,0,0.06234567901234567,54.80185185185184,0)" xlink:href="#aR"/><use transform="matrix(0.06234567901234567,0,0,0.06234567901234567,59.72716049382715,0)" xlink:href="#az"/><use transform="matrix(0.06234567901234567,0,0,0.06234567901234567,72.19629629629628,0)" xlink:href="#ay"/></g><g id="M"><use transform="matrix(0.05,0,0,0.05,0,0)" xlink:href="#aG"/><use transform="matrix(0.05,0,0,0.05,9,0)" xlink:href="#aB"/><use transform="matrix(0.05,0,0,0.05,12.949999999999998,0)" xlink:href="#aJ"/><path fill="#3a414a" d="M-.9 1.25h24.75v1.32H-.9z"/></g><g id="N"><use transform="matrix(0.05,0,0,0.05,0,0)" xlink:href="#aH"/><use transform="matrix(0.05,0,0,0.05,9,0)" xlink:href="#aP"/><use transform="matrix(0.05,0,0,0.05,19,0)" xlink:href="#aD"/><use transform="matrix(0.05,0,0,0.05,24.95,0)" xlink:href="#aD"/><use transform="matrix(0.05,0,0,0.05,30.899999999999995,0)" xlink:href="#az"/><use transform="matrix(0.05,0,0,0.05,40.9,0)" xlink:href="#aJ"/><use transform="matrix(0.05,0,0,0.05,50.9,0)" xlink:href="#aw"/><use transform="matrix(0.05,0,0,0.05,55.900000000000006,0)" xlink:href="#aO"/><use transform="matrix(0.05,0,0,0.05,65.9,0)" xlink:href="#aE"/><use transform="matrix(0.05,0,0,0.05,80.85000000000001,0)" xlink:href="#aB"/><use transform="matrix(0.05,0,0,0.05,84.80000000000001,0)" xlink:href="#aR"/><use transform="matrix(0.05,0,0,0.05,88.75000000000001,0)" xlink:href="#az"/><use transform="matrix(0.05,0,0,0.05,98.75000000000001,0)" xlink:href="#av"/><use transform="matrix(0.05,0,0,0.05,108.75,0)" xlink:href="#aC"/><use transform="matrix(0.05,0,0,0.05,118.75,0)" xlink:href="#az"/></g><g id="O"><use transform="matrix(0.05,0,0,0.05,0,0)" xlink:href="#aE"/><use transform="matrix(0.05,0,0,0.05,14.950000000000001,0)" xlink:href="#av"/><use transform="matrix(0.05,0,0,0.05,24.950000000000003,0)" xlink:href="#aJ"/><use transform="matrix(0.05,0,0,0.05,34.95,0)" xlink:href="#aP"/><use transform="matrix(0.05,0,0,0.05,44.95,0)" xlink:href="#ba"/><use transform="matrix(0.05,0,0,0.05,49.95,0)" xlink:href="#av"/><use transform="matrix(0.05,0,0,0.05,59.95,0)" xlink:href="#aH"/><use transform="matrix(0.05,0,0,0.05,68.95,0)" xlink:href="#aw"/><use transform="matrix(0.05,0,0,0.05,73.95,0)" xlink:href="#aP"/><use transform="matrix(0.05,0,0,0.05,83.95,0)" xlink:href="#aD"/><use transform="matrix(0.05,0,0,0.05,89.9,0)" xlink:href="#az"/><use transform="matrix(0.05,0,0,0.05,99.9,0)" xlink:href="#aD"/></g><path fill="#3a414a" d="M197 0v-115H63V0H30v-248h33v105h134v-105h34V0h-34" id="bc"/><g id="P"><use transform="matrix(0.06234567901234567,0,0,0.06234567901234567,0,0)" xlink:href="#bc"/><use transform="matrix(0.06234567901234567,0,0,0.06234567901234567,16.147530864197527,0)" xlink:href="#av"/><use transform="matrix(0.06234567901234567,0,0,0.06234567901234567,28.61666666666666,0)" xlink:href="#ay"/></g><g id="Q"><use transform="matrix(0.05,0,0,0.05,0,0)" xlink:href="#aQ"/><use transform="matrix(0.05,0,0,0.05,9,0)" xlink:href="#az"/><use transform="matrix(0.05,0,0,0.05,19,0)" xlink:href="#av"/><use transform="matrix(0.05,0,0,0.05,29,0)" xlink:href="#aD"/></g><g id="R"><use transform="matrix(0.05,0,0,0.05,0,0)" xlink:href="#aR"/><use transform="matrix(0.05,0,0,0.05,3.95,0)" xlink:href="#av"/><use transform="matrix(0.05,0,0,0.05,13.949999999999998,0)" xlink:href="#ay"/><use transform="matrix(0.05,0,0,0.05,22.95,0)" xlink:href="#aw"/><use transform="matrix(0.05,0,0,0.05,27.950000000000003,0)" xlink:href="#aO"/><use transform="matrix(0.05,0,0,0.05,37.95,0)" xlink:href="#ay"/><use transform="matrix(0.05,0,0,0.05,46.95,0)" xlink:href="#aH"/><use transform="matrix(0.05,0,0,0.05,55.95,0)" xlink:href="#aM"/><use transform="matrix(0.05,0,0,0.05,65.95,0)" xlink:href="#az"/><use transform="matrix(0.05,0,0,0.05,75.95,0)" xlink:href="#aK"/><use transform="matrix(0.05,0,0,0.05,85.95,0)" xlink:href="#aP"/><use transform="matrix(0.05,0,0,0.05,95.95,0)" xlink:href="#aR"/><use transform="matrix(0.05,0,0,0.05,99.9,0)" xlink:href="#az"/><use transform="matrix(0.05,0,0,0.05,109.9,0)" xlink:href="#aK"/><use transform="matrix(0.05,0,0,0.05,119.9,0)" xlink:href="#aO"/><use transform="matrix(0.05,0,0,0.05,129.9,0)" xlink:href="#aE"/><use transform="matrix(0.05,0,0,0.05,144.85,0)" xlink:href="#av"/><use transform="matrix(0.05,0,0,0.05,154.85,0)" xlink:href="#aB"/><use transform="matrix(0.05,0,0,0.05,158.79999999999998,0)" xlink:href="#aJ"/><use transform="matrix(0.05,0,0,0.05,168.79999999999998,0)" xlink:href="#aw"/><use transform="matrix(0.05,0,0,0.05,173.79999999999998,0)" xlink:href="#az"/><use transform="matrix(0.05,0,0,0.05,183.79999999999998,0)" xlink:href="#aJ"/><use transform="matrix(0.05,0,0,0.05,193.79999999999998,0)" xlink:href="#av"/><use transform="matrix(0.05,0,0,0.05,203.79999999999998,0)" xlink:href="#aJ"/><use transform="matrix(0.05,0,0,0.05,213.79999999999995,0)" xlink:href="#aH"/><use transform="matrix(0.05,0,0,0.05,222.79999999999995,0)" xlink:href="#az"/><use transform="matrix(0.05,0,0,0.05,232.79999999999995,0)" xlink:href="#aO"/><use transform="matrix(0.05,0,0,0.05,242.79999999999995,0)" xlink:href="#aH"/><use transform="matrix(0.05,0,0,0.05,251.79999999999995,0)" xlink:href="#aR"/><use transform="matrix(0.05,0,0,0.05,255.74999999999997,0)" xlink:href="#av"/><use transform="matrix(0.05,0,0,0.05,265.75,0)" xlink:href="#ay"/><use transform="matrix(0.05,0,0,0.05,274.75,0)" xlink:href="#ay"/></g><g id="S"><use transform="matrix(0.05,0,0,0.05,0,0)" xlink:href="#ay"/><use transform="matrix(0.05,0,0,0.05,9,0)" xlink:href="#aw"/><use transform="matrix(0.05,0,0,0.05,14,0)" xlink:href="#av"/><use transform="matrix(0.05,0,0,0.05,24,0)" xlink:href="#aJ"/><use transform="matrix(0.05,0,0,0.05,34,0)" xlink:href="#aK"/><use transform="matrix(0.05,0,0,0.05,44,0)" xlink:href="#aB"/><use transform="matrix(0.05,0,0,0.05,47.95,0)" xlink:href="#aJ"/><use transform="matrix(0.05,0,0,0.05,57.95,0)" xlink:href="#aC"/><use transform="matrix(0.05,0,0,0.05,67.95,0)" xlink:href="#aO"/><use transform="matrix(0.05,0,0,0.05,77.95,0)" xlink:href="#ay"/><use transform="matrix(0.05,0,0,0.05,86.95,0)" xlink:href="#aw"/><use transform="matrix(0.05,0,0,0.05,91.95,0)" xlink:href="#av"/><use transform="matrix(0.05,0,0,0.05,101.95,0)" xlink:href="#aw"/><use transform="matrix(0.05,0,0,0.05,106.95,0)" xlink:href="#aP"/><use transform="matrix(0.05,0,0,0.05,116.95,0)" xlink:href="#ay"/></g><path fill="#3a414a" d="M160-131c35 5 61 23 61 61C221 17 115-2 30 0v-248c76 3 177-17 177 60 0 33-19 50-47 57zm-97-11c50-1 110 9 110-42 0-47-63-36-110-37v79zm0 115c55-2 124 14 124-45 0-56-70-42-124-44v89" id="bd"/><g id="T"><use transform="matrix(0.06234567901234567,0,0,0.06234567901234567,0,0)" xlink:href="#bd"/><use transform="matrix(0.06234567901234567,0,0,0.06234567901234567,14.96296296296296,0)" xlink:href="#az"/><use transform="matrix(0.06234567901234567,0,0,0.06234567901234567,27.432098765432094,0)" xlink:href="#aR"/><use transform="matrix(0.06234567901234567,0,0,0.06234567901234567,32.3574074074074,0)" xlink:href="#aN"/><use transform="matrix(0.06234567901234567,0,0,0.06234567901234567,44.82654320987653,0)" xlink:href="#aJ"/><use transform="matrix(0.06234567901234567,0,0,0.06234567901234567,57.295679012345666,0)" xlink:href="#aC"/><use transform="matrix(0.06234567901234567,0,0,0.06234567901234567,69.7648148148148,0)" xlink:href="#ay"/></g><g id="U"><use transform="matrix(0.06234567901234567,0,0,0.06234567901234567,0,0)" xlink:href="#ar"/><use transform="matrix(0.06234567901234567,0,0,0.06234567901234567,11.159876543209876,0)" xlink:href="#aN"/></g><g id="V"><use transform="matrix(0.06234567901234567,0,0,0.06234567901234567,0,0)" xlink:href="#ap"/><use transform="matrix(0.06234567901234567,0,0,0.06234567901234567,14.96296296296296,0)" xlink:href="#aK"/><use transform="matrix(0.06234567901234567,0,0,0.06234567901234567,27.432098765432094,0)" xlink:href="#aK"/><use transform="matrix(0.06234567901234567,0,0,0.06234567901234567,39.90123456790123,0)" xlink:href="#az"/><use transform="matrix(0.06234567901234567,0,0,0.06234567901234567,52.37037037037036,0)" xlink:href="#aK"/></g><g id="W"><use transform="matrix(0.06234567901234567,0,0,0.06234567901234567,0,0)" xlink:href="#bd"/><use transform="matrix(0.06234567901234567,0,0,0.06234567901234567,14.96296296296296,0)" xlink:href="#aQ"/></g><g id="X"><use transform="matrix(0.06234567901234567,0,0,0.06234567901234567,0,0)" xlink:href="#ap"/><use transform="matrix(0.06234567901234567,0,0,0.06234567901234567,14.96296296296296,0)" xlink:href="#aH"/><use transform="matrix(0.06234567901234567,0,0,0.06234567901234567,26.18518518518518,0)" xlink:href="#aw"/><use transform="matrix(0.06234567901234567,0,0,0.06234567901234567,32.419753086419746,0)" xlink:href="#aB"/><use transform="matrix(0.06234567901234567,0,0,0.06234567901234567,37.34506172839505,0)" xlink:href="#aG"/><use transform="matrix(0.06234567901234567,0,0,0.06234567901234567,48.56728395061727,0)" xlink:href="#az"/></g><g id="Y"><use transform="matrix(0.06234567901234567,0,0,0.06234567901234567,0,0)" xlink:href="#aT"/><use transform="matrix(0.06234567901234567,0,0,0.06234567901234567,18.641358024691353,0)" xlink:href="#az"/><use transform="matrix(0.06234567901234567,0,0,0.06234567901234567,31.110493827160486,0)" xlink:href="#aH"/><use transform="matrix(0.06234567901234567,0,0,0.06234567901234567,42.332716049382704,0)" xlink:href="#aM"/><use transform="matrix(0.06234567901234567,0,0,0.06234567901234567,54.801851851851836,0)" xlink:href="#av"/><use transform="matrix(0.06234567901234567,0,0,0.06234567901234567,67.27098765432098,0)" xlink:href="#aJ"/><use transform="matrix(0.06234567901234567,0,0,0.06234567901234567,79.74012345679012,0)" xlink:href="#aB"/><use transform="matrix(0.06234567901234567,0,0,0.06234567901234567,84.66543209876542,0)" xlink:href="#aH"/><use transform="matrix(0.06234567901234567,0,0,0.06234567901234567,95.88765432098764,0)" xlink:href="#ay"/></g><g id="Z"><use transform="matrix(0.06234567901234567,0,0,0.06234567901234567,0,0)" xlink:href="#aA"/><use transform="matrix(0.06234567901234567,0,0,0.06234567901234567,14.96296296296296,0)" xlink:href="#aG"/><use transform="matrix(0.06234567901234567,0,0,0.06234567901234567,26.18518518518518,0)" xlink:href="#az"/><use transform="matrix(0.06234567901234567,0,0,0.06234567901234567,38.654320987654316,0)" xlink:href="#aJ"/><use transform="matrix(0.06234567901234567,0,0,0.06234567901234567,51.12345679012345,0)" xlink:href="#aw"/><use transform="matrix(0.06234567901234567,0,0,0.06234567901234567,57.35802469135801,0)" xlink:href="#ay"/></g><g id="aa"><use transform="matrix(0.06234567901234567,0,0,0.06234567901234567,0,0)" xlink:href="#aF"/><use transform="matrix(0.06234567901234567,0,0,0.06234567901234567,14.96296296296296,0)" xlink:href="#az"/><use transform="matrix(0.06234567901234567,0,0,0.06234567901234567,27.432098765432094,0)" xlink:href="#aD"/><use transform="matrix(0.06234567901234567,0,0,0.06234567901234567,34.85123456790123,0)" xlink:href="#aG"/><use transform="matrix(0.06234567901234567,0,0,0.06234567901234567,46.07345679012345,0)" xlink:href="#aB"/><use transform="matrix(0.06234567901234567,0,0,0.06234567901234567,50.99876543209876,0)" xlink:href="#aH"/><use transform="matrix(0.06234567901234567,0,0,0.06234567901234567,62.22098765432098,0)" xlink:href="#az"/><use transform="matrix(0.06234567901234567,0,0,0.06234567901234567,74.6901234567901,0)" xlink:href="#ay"/></g><g id="ab"><use transform="matrix(0.06234567901234567,0,0,0.06234567901234567,0,0)" xlink:href="#at"/><use transform="matrix(0.06234567901234567,0,0,0.06234567901234567,16.147530864197527,0)" xlink:href="#az"/><use transform="matrix(0.06234567901234567,0,0,0.06234567901234567,28.61666666666666,0)" xlink:href="#aJ"/><use transform="matrix(0.06234567901234567,0,0,0.06234567901234567,41.08580246913579,0)" xlink:href="#aK"/><use transform="matrix(0.06234567901234567,0,0,0.06234567901234567,53.554938271604925,0)" xlink:href="#az"/><use transform="matrix(0.06234567901234567,0,0,0.06234567901234567,66.02407407407406,0)" xlink:href="#aD"/><use transform="matrix(0.06234567901234567,0,0,0.06234567901234567,73.4432098765432,0)" xlink:href="#az"/><use transform="matrix(0.06234567901234567,0,0,0.06234567901234567,85.91234567901233,0)" xlink:href="#aK"/></g><g id="ac"><use transform="matrix(0.06234567901234567,0,0,0.06234567901234567,0,0)" xlink:href="#aU"/><use transform="matrix(0.06234567901234567,0,0,0.06234567901234567,20.698765432098764,0)" xlink:href="#aN"/><use transform="matrix(0.06234567901234567,0,0,0.06234567901234567,33.16790123456789,0)" xlink:href="#aD"/><use transform="matrix(0.06234567901234567,0,0,0.06234567901234567,40.58703703703703,0)" xlink:href="#aV"/><use transform="matrix(0.06234567901234567,0,0,0.06234567901234567,51.80925925925925,0)" xlink:href="#az"/><use transform="matrix(0.06234567901234567,0,0,0.06234567901234567,64.27839506172839,0)" xlink:href="#aK"/></g><g id="ad"><use transform="matrix(0.06234567901234567,0,0,0.06234567901234567,0,0)" xlink:href="#as"/><use transform="matrix(0.06234567901234567,0,0,0.06234567901234567,17.456790123456788,0)" xlink:href="#aJ"/></g><g id="ae"><use transform="matrix(0.05,0,0,0.05,0,0)" xlink:href="#av"/><use transform="matrix(0.05,0,0,0.05,10,0)" xlink:href="#aE"/><use transform="matrix(0.05,0,0,0.05,24.950000000000003,0)" xlink:href="#aN"/><use transform="matrix(0.05,0,0,0.05,34.95,0)" xlink:href="#aP"/><use transform="matrix(0.05,0,0,0.05,44.95,0)" xlink:href="#aJ"/><use transform="matrix(0.05,0,0,0.05,54.95,0)" xlink:href="#aw"/><use transform="matrix(0.05,0,0,0.05,59.95,0)" xlink:href="#aO"/><use transform="matrix(0.05,0,0,0.05,69.95,0)" xlink:href="#aH"/><use transform="matrix(0.05,0,0,0.05,78.95,0)" xlink:href="#aM"/><use transform="matrix(0.05,0,0,0.05,88.95,0)" xlink:href="#av"/><use transform="matrix(0.05,0,0,0.05,98.95,0)" xlink:href="#aD"/><use transform="matrix(0.05,0,0,0.05,104.9,0)" xlink:href="#aC"/><use transform="matrix(0.05,0,0,0.05,114.9,0)" xlink:href="#az"/><use transform="matrix(0.05,0,0,0.05,124.9,0)" xlink:href="#aK"/></g><g id="af"><use transform="matrix(0.05,0,0,0.05,0,0)" xlink:href="#av"/><use transform="matrix(0.05,0,0,0.05,10,0)" xlink:href="#aE"/><use transform="matrix(0.05,0,0,0.05,24.950000000000003,0)" xlink:href="#aN"/><use transform="matrix(0.05,0,0,0.05,34.95,0)" xlink:href="#aP"/><use transform="matrix(0.05,0,0,0.05,44.95,0)" xlink:href="#aJ"/><use transform="matrix(0.05,0,0,0.05,54.95,0)" xlink:href="#aw"/><use transform="matrix(0.05,0,0,0.05,59.95,0)" xlink:href="#aO"/><use transform="matrix(0.05,0,0,0.05,69.95,0)" xlink:href="#aL"/><use transform="matrix(0.05,0,0,0.05,79.95,0)" xlink:href="#av"/><use transform="matrix(0.05,0,0,0.05,89.95,0)" xlink:href="#aB"/><use transform="matrix(0.05,0,0,0.05,93.9,0)" xlink:href="#aK"/></g><g id="ag"><use transform="matrix(0.06234567901234567,0,0,0.06234567901234567,0,0)" xlink:href="#aS"/><use transform="matrix(0.06234567901234567,0,0,0.06234567901234567,6.234567901234566,0)" xlink:href="#aJ"/><use transform="matrix(0.06234567901234567,0,0,0.06234567901234567,18.7037037037037,0)" xlink:href="#aG"/><use transform="matrix(0.06234567901234567,0,0,0.06234567901234567,29.925925925925917,0)" xlink:href="#aN"/><use transform="matrix(0.06234567901234567,0,0,0.06234567901234567,42.39506172839505,0)" xlink:href="#aB"/><use transform="matrix(0.06234567901234567,0,0,0.06234567901234567,47.320370370370355,0)" xlink:href="#aH"/><use transform="matrix(0.06234567901234567,0,0,0.06234567901234567,58.54259259259258,0)" xlink:href="#az"/><use transform="matrix(0.06234567901234567,0,0,0.06234567901234567,71.01172839506171,0)" xlink:href="#ay"/></g><g id="ah"><use transform="matrix(0.05,0,0,0.05,0,0)" xlink:href="#aB"/><use transform="matrix(0.05,0,0,0.05,3.95,0)" xlink:href="#aB"/><use transform="matrix(0.05,0,0,0.05,7.9,0)" xlink:href="#aK"/><path fill="#3a414a" d="M-.9 1.25h19.7v1.32H-.9z"/></g><g id="ai"><use transform="matrix(0.05,0,0,0.05,0,0)" xlink:href="#aH"/><use transform="matrix(0.05,0,0,0.05,9,0)" xlink:href="#aB"/><use transform="matrix(0.05,0,0,0.05,12.949999999999998,0)" xlink:href="#aK"/></g><g id="aj"><use transform="matrix(0.05,0,0,0.05,0,0)" xlink:href="#aG"/><use transform="matrix(0.05,0,0,0.05,9,0)" xlink:href="#aB"/><use transform="matrix(0.05,0,0,0.05,12.949999999999998,0)" xlink:href="#aJ"/></g><g id="ak"><use transform="matrix(0.05,0,0,0.05,0,0)" xlink:href="#aK"/><use transform="matrix(0.05,0,0,0.05,10,0)" xlink:href="#av"/><use transform="matrix(0.05,0,0,0.05,20,0)" xlink:href="#aw"/><use transform="matrix(0.05,0,0,0.05,25,0)" xlink:href="#az"/><use transform="matrix(0.05,0,0,0.05,35,0)" xlink:href="#aO"/><use transform="matrix(0.05,0,0,0.05,45,0)" xlink:href="#aN"/><use transform="matrix(0.05,0,0,0.05,55,0)" xlink:href="#ba"/><use transform="matrix(0.05,0,0,0.05,60,0)" xlink:href="#aO"/><use transform="matrix(0.05,0,0,0.05,70,0)" xlink:href="#ay"/><use transform="matrix(0.05,0,0,0.05,79,0)" xlink:href="#az"/><use transform="matrix(0.05,0,0,0.05,89,0)" xlink:href="#aD"/><use transform="matrix(0.05,0,0,0.05,94.95,0)" xlink:href="#aG"/><use transform="matrix(0.05,0,0,0.05,103.95,0)" xlink:href="#aB"/><use transform="matrix(0.05,0,0,0.05,107.9,0)" xlink:href="#aH"/><use transform="matrix(0.05,0,0,0.05,116.9,0)" xlink:href="#az"/></g><g id="al"><use transform="matrix(0.05,0,0,0.05,0,0)" xlink:href="#ay"/><use transform="matrix(0.05,0,0,0.05,9,0)" xlink:href="#aw"/><use transform="matrix(0.05,0,0,0.05,14,0)" xlink:href="#av"/><use transform="matrix(0.05,0,0,0.05,24,0)" xlink:href="#aw"/><use transform="matrix(0.05,0,0,0.05,29,0)" xlink:href="#aP"/><use transform="matrix(0.05,0,0,0.05,39,0)" xlink:href="#ay"/></g><g id="am"><use transform="matrix(0.06234567901234567,0,0,0.06234567901234567,0,0)" xlink:href="#aI"/><use transform="matrix(0.06234567901234567,0,0,0.06234567901234567,16.147530864197527,0)" xlink:href="#aN"/><use transform="matrix(0.06234567901234567,0,0,0.06234567901234567,28.61666666666666,0)" xlink:href="#ay"/><use transform="matrix(0.06234567901234567,0,0,0.06234567901234567,39.83888888888888,0)" xlink:href="#aw"/></g><g id="an"><use transform="matrix(0.05,0,0,0.05,0,0)" xlink:href="#av"/><use transform="matrix(0.05,0,0,0.05,10,0)" xlink:href="#aH"/><use transform="matrix(0.05,0,0,0.05,19,0)" xlink:href="#aw"/><use transform="matrix(0.05,0,0,0.05,24,0)" xlink:href="#aB"/><use transform="matrix(0.05,0,0,0.05,27.950000000000003,0)" xlink:href="#aG"/><use transform="matrix(0.05,0,0,0.05,36.95,0)" xlink:href="#az"/><use transform="matrix(0.05,0,0,0.05,46.95,0)" xlink:href="#aO"/><use transform="matrix(0.05,0,0,0.05,56.95,0)" xlink:href="#ay"/><use transform="matrix(0.05,0,0,0.05,65.95,0)" xlink:href="#aw"/><use transform="matrix(0.05,0,0,0.05,70.95,0)" xlink:href="#av"/><use transform="matrix(0.05,0,0,0.05,80.95,0)" xlink:href="#aw"/><use transform="matrix(0.05,0,0,0.05,85.95,0)" xlink:href="#aP"/><use transform="matrix(0.05,0,0,0.05,95.95,0)" xlink:href="#ay"/></g><g id="ao"><use transform="matrix(0.05,0,0,0.05,0,0)" xlink:href="#aw"/><use transform="matrix(0.05,0,0,0.05,5,0)" xlink:href="#aB"/><use transform="matrix(0.05,0,0,0.05,8.95,0)" xlink:href="#aE"/><use transform="matrix(0.05,0,0,0.05,23.9,0)" xlink:href="#az"/><use transform="matrix(0.05,0,0,0.05,33.9,0)" xlink:href="#aO"/><use transform="matrix(0.05,0,0,0.05,43.9,0)" xlink:href="#az"/><use transform="matrix(0.05,0,0,0.05,53.900000000000006,0)" xlink:href="#ay"/><use transform="matrix(0.05,0,0,0.05,62.900000000000006,0)" xlink:href="#aw"/><use transform="matrix(0.05,0,0,0.05,67.9,0)" xlink:href="#aB"/><use transform="matrix(0.05,0,0,0.05,71.85000000000001,0)" xlink:href="#aE"/><use transform="matrix(0.05,0,0,0.05,86.80000000000001,0)" xlink:href="#av"/><use transform="matrix(0.05,0,0,0.05,96.80000000000001,0)" xlink:href="#aw"/><use transform="matrix(0.05,0,0,0.05,101.80000000000001,0)" xlink:href="#az"/><use transform="matrix(0.05,0,0,0.05,111.80000000000001,0)" xlink:href="#aK"/></g></defs></g></svg>